<svg xmlns="http://www.w3.org/2000/svg" xmlns:xlink="http://www.w3.org/1999/xlink" width="100" zoomAndPan="magnify" viewBox="0 0 75 46.499999" height="62" preserveAspectRatio="xMidYMid meet" version="1.0"><defs><g/></defs><g fill="#ffffff" fill-opacity="1"><g transform="translate(31.789913, 38.358268)"><g><path d="M 10.746094 0.316406 C 10.984375 0.277344 11.140625 0.078125 11.140625 -0.195312 L 11.140625 -2.203125 C 11.140625 -2.480469 10.984375 -2.636719 10.667969 -2.636719 C 10.039062 -2.558594 9.367188 -2.519531 8.894531 -2.519531 C 6.890625 -2.519531 5.824219 -3.699219 5.824219 -6.769531 L 5.824219 -27.710938 C 5.824219 -27.988281 5.667969 -28.144531 5.394531 -28.144531 L 3.070312 -28.144531 C 2.753906 -28.144531 2.597656 -27.988281 2.597656 -27.710938 L 2.597656 -6.808594 C 2.597656 -2.085938 4.761719 0.433594 8.542969 0.433594 C 9.25 0.433594 10.078125 0.394531 10.746094 0.316406 Z M 10.746094 0.316406 "/></g></g></g></svg>