<svg xmlns="http://www.w3.org/2000/svg" xmlns:xlink="http://www.w3.org/1999/xlink" width="100" zoomAndPan="magnify" viewBox="0 0 75 46.499999" height="62" preserveAspectRatio="xMidYMid meet" version="1.0"><defs><g/></defs><g fill="#ffffff" fill-opacity="1"><g transform="translate(1.62791, 36.994381)"><g><path d="M 10.417969 0.304688 C 10.648438 0.265625 10.800781 0.078125 10.800781 -0.191406 L 10.800781 -2.136719 C 10.800781 -2.402344 10.648438 -2.558594 10.34375 -2.558594 C 9.730469 -2.480469 9.082031 -2.441406 8.625 -2.441406 C 6.679688 -2.441406 5.648438 -3.585938 5.648438 -6.5625 L 5.648438 -26.867188 C 5.648438 -27.132812 5.496094 -27.285156 5.226562 -27.285156 L 2.976562 -27.285156 C 2.671875 -27.285156 2.519531 -27.132812 2.519531 -26.867188 L 2.519531 -6.601562 C 2.519531 -2.023438 4.617188 0.417969 8.28125 0.417969 C 8.96875 0.417969 9.769531 0.382812 10.417969 0.304688 Z M 10.417969 0.304688 "/></g></g></g><g fill="#ffffff" fill-opacity="1"><g transform="translate(12.693181, 36.994381)"><g><path d="M 2.328125 -18.164062 C 2.175781 -18.011719 2.214844 -17.859375 2.328125 -17.632812 L 3.433594 -16.027344 C 3.585938 -15.800781 3.777344 -15.761719 4.007812 -15.914062 C 5.34375 -16.714844 7.289062 -17.324219 9.425781 -17.324219 C 12.746094 -17.324219 14.003906 -15.761719 14.003906 -12.667969 L 14.003906 -11.449219 C 12.707031 -11.675781 10.992188 -11.90625 9.425781 -11.90625 C 4.542969 -11.90625 1.222656 -9.882812 1.222656 -5.839844 C 1.222656 -1.296875 5.152344 0.417969 9.425781 0.417969 C 12.289062 0.417969 14.996094 -0.152344 16.792969 -0.800781 C 17.019531 -0.878906 17.136719 -1.070312 17.136719 -1.296875 L 17.136719 -12.746094 C 17.136719 -17.667969 14.234375 -20.148438 9.539062 -20.148438 C 6.601562 -20.148438 4.121094 -19.386719 2.328125 -18.164062 Z M 4.351562 -5.839844 C 4.351562 -7.9375 5.953125 -9.234375 9.425781 -9.234375 C 10.992188 -9.234375 12.785156 -9.007812 14.003906 -8.777344 L 14.003906 -3.054688 C 12.859375 -2.710938 11.144531 -2.367188 9.425781 -2.367188 C 6.488281 -2.367188 4.351562 -3.550781 4.351562 -5.839844 Z M 4.351562 -5.839844 "/></g></g></g><g fill="#ffffff" fill-opacity="1"><g transform="translate(32.190962, 36.994381)"><g><path d="M 5.648438 -6.488281 L 5.648438 -16.753906 L 10.609375 -16.753906 C 10.875 -16.753906 11.027344 -16.90625 11.027344 -17.210938 L 11.027344 -19.121094 C 11.027344 -19.386719 10.875 -19.539062 10.609375 -19.539062 L 5.648438 -19.539062 L 5.382812 -24.15625 C 5.34375 -24.421875 5.191406 -24.578125 4.960938 -24.578125 L 2.976562 -24.578125 C 2.671875 -24.578125 2.519531 -24.421875 2.519531 -24.117188 L 2.519531 -6.335938 C 2.519531 -1.640625 5.34375 0.417969 9.160156 0.417969 C 9.65625 0.417969 10.53125 0.382812 11.21875 0.34375 C 11.488281 0.304688 11.601562 0.113281 11.601562 -0.113281 L 11.601562 -2.136719 C 11.601562 -2.402344 11.449219 -2.558594 11.144531 -2.558594 C 10.457031 -2.519531 9.730469 -2.480469 9.3125 -2.480469 C 6.945312 -2.480469 5.648438 -3.96875 5.648438 -6.488281 Z M 5.648438 -6.488281 "/></g></g></g><g fill="#ffffff" fill-opacity="1"><g transform="translate(44.439079, 36.994381)"><g><path d="M 6.105469 -25.261719 C 6.105469 -26.371094 5.304688 -27.132812 4.234375 -27.132812 C 3.167969 -27.132812 2.328125 -26.371094 2.328125 -25.261719 C 2.328125 -24.195312 3.167969 -23.394531 4.234375 -23.394531 C 5.304688 -23.394531 6.105469 -24.195312 6.105469 -25.261719 Z M 3.089844 0 L 5.34375 0 C 5.609375 0 5.761719 -0.152344 5.761719 -0.417969 L 5.761719 -19.273438 C 5.761719 -19.539062 5.609375 -19.730469 5.34375 -19.730469 L 3.089844 -19.730469 C 2.785156 -19.730469 2.632812 -19.539062 2.632812 -19.273438 L 2.632812 -0.417969 C 2.632812 -0.152344 2.785156 0 3.089844 0 Z M 3.089844 0 "/></g></g></g><g fill="#ffffff" fill-opacity="1"><g transform="translate(52.833432, 36.994381)"><g><path d="M 11.371094 -24.84375 C 11.601562 -24.84375 11.753906 -24.996094 11.753906 -25.261719 L 11.753906 -27.09375 C 11.753906 -27.363281 11.640625 -27.554688 11.335938 -27.589844 C 10.648438 -27.667969 9.808594 -27.707031 9.042969 -27.707031 C 5.417969 -27.707031 2.632812 -25.339844 2.632812 -20.761719 L 2.632812 -0.417969 C 2.632812 -0.152344 2.785156 0 3.054688 0 L 5.304688 0 C 5.609375 0 5.761719 -0.152344 5.761719 -0.417969 L 5.761719 -16.753906 L 11.027344 -16.753906 C 11.296875 -16.753906 11.449219 -16.90625 11.449219 -17.210938 L 11.449219 -19.121094 C 11.449219 -19.386719 11.296875 -19.539062 11.027344 -19.539062 L 5.761719 -19.539062 L 5.761719 -20.796875 C 5.761719 -23.394531 7.058594 -24.957031 9.464844 -24.957031 C 10.074219 -24.957031 10.800781 -24.917969 11.371094 -24.84375 Z M 11.371094 -24.84375 "/></g></g></g><g fill="#ffffff" fill-opacity="1"><g transform="translate(64.920001, 36.994381)"><g/></g></g></svg>