<?xml version="1.0" standalone="no"?>
<!DOCTYPE svg PUBLIC "-//W3C//DTD SVG 20010904//EN"
 "http://www.w3.org/TR/2001/REC-SVG-20010904/DTD/svg10.dtd">
<svg version="1.0" xmlns="http://www.w3.org/2000/svg"
 width="1672.000000pt" height="1254.000000pt" viewBox="0 0 1672.000000 1254.000000"
 preserveAspectRatio="xMidYMid meet">

<g transform="translate(0.000000,1254.000000) scale(0.100000,-0.100000)"
fill="#000000" stroke="none">
<path d="M145 12470 c-10 -16 4 -30 31 -30 l24 0 -20 20 c-23 23 -26 24 -35
10z"/>
<path d="M320 12449 c0 -5 -4 -8 -9 -5 -5 4 -7 -3 -4 -13 7 -28 40 -54 58 -48
23 9 18 43 -10 61 -29 19 -35 20 -35 5z"/>
<path d="M695 12110 c-3 -5 -3 -14 0 -20 3 -5 0 -7 -8 -4 -8 3 -17 1 -21 -4
-6 -11 17 -13 64 -6 l34 6 -24 19 c-29 21 -36 23 -45 9z"/>
<path d="M812 11995 c-18 -21 -31 -60 -24 -71 4 -6 33 -31 65 -57 l58 -47 35
28 c19 15 34 30 34 33 0 11 -133 129 -144 129 -6 -1 -17 -7 -24 -15z"/>
<path d="M717 11874 c-8 -9 22 -67 40 -77 8 -5 29 -22 47 -38 38 -33 51 -36
60 -12 7 18 -39 63 -86 85 -15 7 -29 20 -31 30 -5 18 -18 23 -30 12z"/>
<path d="M910 11697 c0 -27 28 -57 52 -57 9 0 18 -6 21 -12 4 -10 7 -10 17 -1
11 10 5 20 -31 52 -51 47 -59 49 -59 18z"/>
<path d="M1035 11600 c-11 -17 5 -32 21 -19 7 6 11 15 8 20 -7 12 -21 11 -29
-1z"/>
<path d="M1090 11544 c0 -18 95 -111 123 -120 34 -11 43 13 14 36 -18 15 -27
31 -27 51 0 27 -3 29 -39 29 -22 0 -43 5 -46 10 -10 15 -25 12 -25 -6z"/>
<path d="M1630 11173 c0 -5 -14 -22 -30 -40 -34 -36 -36 -43 -15 -43 9 0 20
-11 25 -25 11 -29 10 -28 44 -15 20 7 27 6 34 -7 5 -8 23 -21 39 -28 27 -12
33 -10 58 9 l27 22 -48 39 c-27 22 -55 44 -62 50 -7 5 -21 18 -30 28 -17 17
-42 23 -42 10z"/>
<path d="M1765 10917 l-80 -79 40 -35 c97 -83 98 -84 136 -70 19 6 38 19 43
27 5 7 29 32 53 55 23 23 43 46 43 51 0 6 -25 33 -57 60 -31 27 -62 55 -69 62
-7 6 -16 11 -21 11 -4 -1 -44 -38 -88 -82z"/>
<path d="M1671 10960 l-23 -20 29 0 c35 0 44 7 36 26 -7 18 -13 17 -42 -6z"/>
<path d="M2044 10809 c-3 -6 3 -21 15 -32 13 -13 21 -16 21 -9 0 9 7 11 23 7
19 -6 18 -3 -8 19 -34 29 -41 31 -51 15z"/>
<path d="M2170 10706 c0 -18 17 -29 30 -21 8 5 7 11 -1 21 -15 18 -29 18 -29
0z"/>
<path d="M2233 10621 c-28 -29 -39 -61 -21 -61 14 0 9 -27 -9 -41 -13 -11 -17
-11 -20 -1 -3 6 -12 12 -22 12 -22 0 -63 -38 -56 -51 4 -5 38 -35 77 -66 l71
-56 34 39 c18 21 51 58 73 81 l39 41 -20 26 c-11 14 -25 26 -32 26 -6 0 -27
18 -48 41 l-37 41 -29 -31z"/>
<path d="M2034 10572 c-14 -22 -7 -42 16 -42 25 0 32 25 11 44 -15 14 -18 14
-27 -2z"/>
<path d="M2412 10434 c-17 -20 -28 -42 -26 -49 4 -9 -11 -21 -40 -34 -25 -11
-46 -24 -46 -29 0 -5 21 -27 47 -48 25 -21 53 -47 62 -56 8 -10 19 -18 23 -18
4 0 42 35 84 78 l76 77 -63 58 c-35 31 -69 57 -75 57 -6 0 -25 -16 -42 -36z"/>
<path d="M2573 10239 c-37 -39 -70 -75 -72 -81 -4 -11 29 -44 72 -73 27 -17
28 -17 48 4 11 11 24 21 29 21 4 0 14 16 20 35 6 19 16 36 21 36 5 1 14 3 19
4 6 1 17 3 25 4 8 0 15 8 15 17 0 8 -4 12 -10 9 -5 -3 -10 -2 -10 4 0 13 -48
69 -70 81 -15 8 -30 -3 -87 -61z"/>
<path d="M10407 9900 c-16 -5 -34 -13 -40 -18 -23 -18 -58 -21 -64 -6 -8 23
-31 16 -45 -13 -7 -15 -22 -29 -33 -31 -19 -3 -19 -2 3 17 12 10 22 22 22 25
0 7 -51 5 -65 -3 -15 -8 -167 -9 -154 -1 7 5 5 9 -5 13 -9 4 -16 2 -16 -3 0
-13 -37 -13 -45 0 -4 6 -11 7 -17 4 -18 -11 -87 -14 -93 -3 -4 5 -13 9 -21 9
-9 0 -12 -5 -8 -12 5 -7 3 -8 -7 -3 -24 15 -50 13 -44 -3 4 -11 -1 -13 -20
-10 -16 3 -30 -1 -41 -13 -10 -11 -31 -19 -50 -19 -18 0 -37 -6 -41 -13 -12
-19 -75 -35 -101 -26 -16 6 -20 5 -16 -5 3 -9 -8 -21 -28 -31 -87 -46 -104
-53 -112 -47 -5 3 -6 -3 -2 -14 7 -18 6 -18 -10 -2 -16 16 -18 16 -35 -3 -10
-12 -22 -18 -27 -15 -5 3 -12 -4 -16 -17 -4 -17 -8 -19 -15 -9 -7 11 -9 11
-14 -2 -4 -9 -13 -16 -22 -16 -8 0 -15 -4 -15 -10 0 -5 -7 -7 -15 -4 -11 5
-15 -1 -15 -18 0 -17 -10 -29 -37 -43 -21 -11 -42 -26 -46 -33 -5 -7 -18 -17
-30 -23 -12 -5 -37 -21 -56 -34 -18 -14 -39 -22 -45 -18 -6 3 -8 3 -4 -2 5 -5
-6 -16 -22 -26 -17 -11 -30 -23 -30 -29 0 -5 -7 -10 -15 -10 -8 0 -15 -4 -15
-10 0 -5 -7 -10 -15 -10 -9 0 -18 -7 -21 -15 -4 -8 -10 -12 -15 -9 -5 3 -9 -2
-9 -10 0 -8 -9 -18 -20 -21 -11 -3 -20 -11 -20 -16 0 -5 -6 -9 -14 -9 -7 0
-29 -20 -47 -45 -19 -24 -41 -47 -49 -50 -20 -7 -139 -154 -167 -205 -11 -22
-28 -47 -37 -55 -24 -24 -20 -32 13 -27 24 3 38 -4 76 -39 l47 -43 -49 -42
c-44 -39 -49 -41 -65 -27 -10 9 -18 20 -18 25 0 5 -10 24 -23 41 -13 18 -24
48 -26 67 -5 68 -9 73 -39 41 -58 -63 -80 -90 -76 -94 2 -2 -5 -12 -16 -22
-11 -10 -20 -24 -20 -30 0 -7 -7 -19 -16 -26 -9 -7 -20 -23 -25 -36 -9 -23
-49 -33 -49 -12 0 6 8 8 18 5 22 -7 28 29 7 38 -12 4 -12 12 0 53 16 51 20
153 7 153 -10 0 -58 -59 -52 -65 3 -3 -12 -16 -32 -30 -21 -14 -37 -29 -36
-33 2 -9 -42 -100 -63 -129 -9 -13 -19 -20 -22 -16 -4 3 -8 1 -8 -5 -1 -7 -3
-16 -4 -22 -1 -5 -3 -15 -4 -21 0 -6 -8 -9 -16 -5 -14 5 -20 -6 -15 -29 1 -5
-2 -7 -6 -3 -7 8 -113 -79 -172 -141 -35 -37 -62 -78 -44 -67 6 4 8 -2 5 -15
-5 -16 -8 -18 -15 -7 -6 9 -7 6 -3 -9 3 -12 8 -31 10 -42 2 -11 8 -29 14 -38
8 -15 -6 -33 -82 -107 -51 -49 -94 -90 -97 -91 -17 -3 -50 -32 -50 -43 0 -7
-4 -11 -9 -8 -5 3 -15 -2 -22 -11 -12 -14 -12 -16 0 -8 10 5 12 4 7 -4 -4 -6
-11 -9 -15 -7 -4 3 -25 -11 -46 -30 -21 -19 -34 -34 -29 -34 5 0 3 -4 -5 -9
-12 -8 -12 -12 -2 -24 10 -12 10 -20 0 -35 -7 -11 -9 -27 -5 -37 6 -17 7 -17
26 0 12 10 20 13 20 7 0 -7 -4 -12 -10 -12 -5 0 -10 -7 -10 -17 0 -15 -1 -15
-18 0 -10 10 -21 14 -24 11 -3 -3 -5 2 -4 12 0 9 -7 18 -16 19 -11 2 -15 -2
-11 -13 5 -11 2 -14 -10 -9 -9 3 -19 2 -22 -4 -4 -5 -10 -7 -15 -4 -4 3 -7 -2
-6 -10 3 -20 36 -43 59 -39 9 1 17 -2 17 -6 0 -5 3 -15 6 -24 4 -12 0 -16 -16
-16 -19 0 -20 2 -10 15 18 22 3 18 -20 -5 -25 -25 -25 -30 -1 -25 14 3 18 -1
14 -11 -3 -8 -12 -13 -19 -10 -8 3 -11 0 -7 -10 3 -8 -6 -26 -21 -41 -26 -26
-33 -43 -18 -43 5 0 9 -6 9 -14 0 -8 -6 -12 -14 -9 -7 3 -13 9 -13 15 0 5 -5
6 -11 2 -6 -3 -9 -15 -6 -25 3 -11 1 -19 -3 -19 -5 0 -12 -9 -15 -21 -4 -12
-12 -18 -21 -15 -8 3 -15 1 -15 -4 -1 -6 -2 -14 -3 -19 -2 -14 -16 -26 -16
-13 0 6 -7 9 -16 5 -13 -5 -13 -7 -2 -14 10 -7 9 -9 -4 -9 -11 0 -15 -5 -12
-15 4 -11 0 -15 -16 -15 -18 0 -20 -3 -11 -14 6 -7 10 -28 9 -45 -2 -25 -7
-31 -25 -31 -12 0 -25 5 -29 11 -7 13 30 91 59 123 9 11 17 23 17 27 0 18 44
48 55 39 22 -18 25 3 3 21 -17 16 -18 19 -5 19 10 0 17 -6 17 -12 0 -7 5 -5
11 5 8 14 8 22 -1 30 -10 9 -11 9 -5 -2 6 -10 2 -12 -13 -7 -15 5 -22 2 -27
-14 -3 -11 -12 -20 -20 -20 -7 0 -15 -7 -19 -15 -3 -8 -12 -15 -19 -15 -8 0
-19 -11 -25 -25 -7 -14 -24 -30 -39 -36 -20 -7 -24 -12 -14 -18 10 -7 9 -10
-8 -16 -11 -3 -21 -13 -21 -21 0 -8 -5 -12 -10 -9 -6 4 -36 -6 -67 -20 -51
-25 -210 -65 -256 -65 -10 0 -29 12 -43 27 -24 26 -24 26 -47 7 -31 -26 -37
-36 -37 -60 0 -17 5 -20 25 -16 19 3 25 0 25 -13 0 -17 -38 -60 -205 -230 -68
-70 -126 -131 -350 -370 -140 -150 -175 -185 -184 -185 -5 0 -19 -22 -32 -50
-13 -27 -25 -47 -28 -45 -7 8 -51 -76 -45 -86 3 -5 0 -9 -6 -9 -8 0 -10 -9 -6
-24 3 -12 2 -26 -2 -30 -4 -4 -7 -11 -8 -14 -4 -34 -27 -102 -45 -132 -5 -8
-12 -22 -15 -30 -3 -8 -10 -23 -16 -34 -5 -10 -11 -26 -13 -36 -2 -10 -19 -54
-38 -97 -19 -43 -51 -132 -72 -198 -20 -66 -45 -145 -56 -175 -34 -104 -77
-255 -99 -350 -11 -52 -30 -133 -40 -180 -52 -228 -63 -300 -66 -422 -2 -71 1
-128 5 -128 5 0 6 -11 3 -25 -2 -14 -8 -23 -12 -20 -12 8 -18 -18 -9 -40 4
-11 8 -16 8 -10 2 17 28 -29 34 -60 3 -16 10 -52 16 -80 5 -27 21 -83 35 -124
14 -41 23 -78 21 -82 -3 -4 2 -10 11 -13 8 -3 20 -20 26 -36 7 -20 15 -29 24
-26 8 3 14 -1 14 -8 0 -8 -6 -17 -12 -19 -7 -3 -4 -6 6 -6 20 -1 20 -1 0 -15
-12 -10 -21 -11 -25 -4 -11 17 -28 0 -22 -22 3 -11 9 -17 14 -14 5 3 9 -3 9
-12 0 -10 3 -14 7 -11 3 4 12 -1 19 -11 12 -15 13 -15 14 8 0 14 4 20 8 14 4
-6 14 -11 22 -11 27 -1 45 -8 58 -23 8 -8 11 -9 7 -2 -3 6 -1 12 4 12 6 0 11
-5 11 -11 0 -8 5 -7 16 2 14 11 18 11 28 -1 6 -8 20 -15 31 -15 11 0 19 -6 17
-13 -1 -8 8 -11 33 -8 19 3 35 0 35 -5 0 -5 6 -9 14 -9 8 0 16 -5 18 -10 4
-14 158 -26 158 -13 0 6 26 10 58 11 31 0 78 5 102 12 60 16 76 20 134 32 28
5 59 16 70 24 11 8 30 14 41 14 12 0 25 4 31 8 14 13 93 34 103 28 5 -3 12 1
15 10 4 9 13 14 21 10 9 -3 18 1 21 9 4 8 10 15 16 15 5 0 28 13 51 28 40 28
80 47 83 40 1 -2 10 4 20 13 11 9 34 22 52 30 17 8 32 17 32 21 0 5 6 8 13 8
7 0 39 14 72 32 33 17 72 37 88 45 15 8 27 19 27 25 0 5 6 8 14 5 7 -3 23 4
34 16 11 12 43 36 71 52 54 32 67 51 28 41 -14 -3 -32 1 -43 9 -10 8 -26 14
-34 15 -8 0 -2 -7 15 -16 16 -8 31 -16 32 -18 8 -8 -81 -4 -97 4 -13 7 -21 7
-25 0 -3 -5 -14 -10 -23 -10 -13 0 -14 2 -3 9 11 7 11 9 0 13 -19 6 -49 -2
-49 -14 0 -5 -7 -3 -15 4 -8 7 -22 20 -31 27 -12 10 -13 16 -6 19 15 5 5 22
-13 22 -9 0 -11 -7 -7 -22 3 -14 2 -19 -6 -14 -19 11 -14 -5 6 -20 16 -13 16
-14 -2 -7 -15 5 -18 3 -13 -10 3 -9 2 -17 -3 -17 -5 0 -12 9 -15 21 -10 32
-36 58 -51 52 -23 -9 -16 -31 14 -41 19 -7 21 -11 8 -11 -11 -1 -16 -6 -13
-14 3 -8 -1 -14 -8 -14 -7 0 -11 6 -8 13 3 7 -2 23 -11 36 -9 12 -16 33 -16
45 0 15 -6 23 -17 23 -15 0 -16 -2 -3 -10 8 -5 11 -12 7 -16 -4 -4 -17 1 -29
12 -12 10 -19 14 -15 9 3 -6 -4 -11 -16 -12 -12 0 -16 1 -9 4 6 3 12 9 12 14
0 6 -4 7 -10 4 -5 -3 -10 0 -11 7 0 7 -4 4 -9 -7 -6 -14 -9 -15 -9 -5 -1 10
-11 16 -28 17 -48 1 -54 3 -48 13 3 5 0 7 -8 5 -18 -7 -70 42 -61 57 5 8 10 6
14 -7 4 -10 9 -14 13 -9 3 6 2 16 -3 24 -7 11 -12 11 -23 2 -11 -10 -16 -9
-24 0 -18 24 -23 50 -13 63 8 10 8 15 -1 21 -8 5 -9 3 -4 -6 5 -9 4 -11 -3 -6
-16 10 -15 24 3 43 8 8 13 19 10 24 -4 5 -2 9 4 9 5 0 15 -8 20 -17 9 -16 10
-16 11 -1 0 9 -5 18 -12 20 -6 2 -12 12 -14 21 -1 9 2 15 7 11 5 -3 9 1 9 8 1
9 5 7 14 -5 7 -9 17 -17 21 -17 4 0 2 6 -4 14 -9 10 -8 16 4 26 19 16 19 40 0
40 -9 0 -12 6 -8 16 5 14 8 15 17 3 6 -8 19 -13 29 -11 9 2 17 -1 17 -7 0 -6
-7 -8 -15 -5 -8 4 -15 2 -15 -4 0 -11 25 -10 36 0 3 4 -2 19 -12 34 l-18 27
27 -5 c20 -4 27 -1 28 11 0 14 1 14 6 1 4 -8 13 -20 22 -27 9 -6 13 -15 8 -19
-4 -4 -14 1 -23 12 -15 18 -15 18 -10 -6 3 -14 6 -28 6 -32 0 -5 7 -8 15 -8 8
0 14 3 13 8 -2 4 5 18 14 31 17 24 18 24 38 6 11 -10 18 -20 15 -23 -3 -3 4
-12 15 -19 11 -8 18 -18 15 -23 -3 -4 3 -7 12 -5 10 2 23 4 28 4 6 1 3 6 -5
11 -20 13 -4 13 21 0 10 -6 19 -18 20 -28 0 -10 3 -12 6 -4 8 19 40 14 46 -8
3 -11 9 -20 14 -19 4 1 19 -3 33 -9 14 -6 18 -11 10 -12 -13 0 -13 -2 0 -9 20
-13 30 -5 25 21 -4 21 -3 20 21 -5 14 -16 28 -26 31 -23 3 3 -2 12 -11 21 -17
17 -22 40 -7 31 5 -4 11 -3 14 1 2 5 2 3 1 -4 -2 -7 2 -15 8 -19 6 -4 8 -3 4
4 -3 5 0 12 6 15 10 3 9 13 -5 38 l-19 34 35 -38 c19 -20 40 -37 46 -37 6 0
11 -6 11 -14 0 -8 10 -13 23 -12 26 2 51 -19 41 -35 -5 -8 -1 -8 14 0 16 9 21
7 27 -6 5 -15 7 -15 16 -3 8 12 10 10 6 -7 -4 -16 0 -23 10 -23 8 0 12 4 9 9
-4 5 3 7 14 4 11 -3 18 -9 15 -13 -6 -10 29 -50 44 -50 6 0 14 -7 17 -15 4
-11 21 -15 58 -15 40 -1 47 -3 33 -11 -9 -6 -15 -15 -11 -20 4 -6 14 -3 27 8
20 17 20 17 14 -1 -6 -15 -3 -17 13 -13 12 3 24 -1 31 -11 10 -15 10 -15 5 1
-5 16 -3 16 22 4 28 -14 91 -15 113 -2 7 5 10 4 6 -3 -5 -6 2 -6 18 1 32 15
32 31 0 25 -13 -3 -22 -1 -19 3 3 5 1 9 -5 9 -5 0 -13 -5 -17 -11 -5 -8 -10
-6 -16 5 -8 14 -13 15 -24 5 -8 -7 -14 -7 -14 -1 0 5 7 12 15 16 28 10 15 22
-24 21 -22 0 -39 2 -39 5 2 20 -4 30 -18 30 -9 0 -12 -5 -8 -12 4 -7 3 -8 -5
-4 -6 4 -9 11 -6 16 3 4 -2 13 -10 20 -8 7 -12 16 -9 21 5 9 -8 13 -38 10 -10
-1 -18 3 -18 9 0 7 -7 9 -16 6 -8 -3 -12 -2 -9 4 3 5 -3 14 -14 19 -25 14 -44
14 -36 1 3 -5 2 -10 -3 -10 -13 0 -24 29 -16 42 4 7 -5 8 -27 3 -22 -4 -29 -3
-20 3 9 6 10 12 3 16 -6 4 -8 14 -5 23 4 11 3 14 -5 9 -7 -4 -12 -2 -12 3 0 6
-7 11 -15 11 -9 0 -15 9 -15 25 0 18 -4 23 -16 18 -10 -4 -17 1 -21 16 -3 11
-9 21 -14 21 -5 0 -8 3 -8 8 3 20 -2 25 -12 12 -8 -11 -9 -9 -3 10 3 14 3 22
-1 18 -7 -7 -45 27 -45 41 0 11 -30 25 -47 22 -7 -1 -13 5 -13 14 0 9 -8 19
-17 23 -10 4 -18 14 -18 22 0 9 -7 14 -20 12 -18 -4 -18 -2 5 25 14 15 21 25
16 21 -5 -4 -18 -2 -30 4 -11 7 -23 12 -26 13 -3 0 -13 7 -21 15 -15 13 -15
16 0 27 14 12 14 12 -3 6 -16 -5 -18 -3 -13 11 4 10 3 15 -3 11 -6 -3 -10 -1
-10 4 0 6 6 11 13 11 9 0 9 2 0 8 -6 4 -13 14 -15 21 -2 8 -11 22 -20 32 -12
13 -16 30 -13 58 5 54 -4 81 -26 81 -23 0 -24 10 -3 36 15 19 16 19 9 -1 -4
-14 -3 -17 5 -9 6 6 8 18 4 27 -7 18 -24 23 -24 7 0 -5 -5 -10 -11 -10 -7 0
-8 7 -4 18 11 25 13 72 4 77 -4 3 -5 15 -2 28 4 20 3 21 -10 5 -8 -10 -20 -18
-27 -18 -10 0 -10 3 0 15 14 16 21 67 9 59 -5 -3 -9 2 -9 10 0 21 -20 20 -36
-1 -9 -13 -13 -14 -14 -5 0 8 9 25 20 39 13 17 18 34 14 47 -6 21 -6 21 11 1
9 -11 14 -14 10 -7 -4 7 -1 20 7 29 11 14 11 16 0 9 -11 -6 -13 0 -11 27 2 20
-3 43 -11 53 -14 18 -14 18 4 4 18 -14 19 -13 14 8 -4 12 -3 20 2 17 4 -3 10
2 13 10 4 9 1 12 -9 8 -22 -8 -17 12 12 46 18 22 24 37 18 49 -7 16 -7 16 -11
0 -5 -22 -19 -23 -26 -4 -6 15 18 31 41 27 6 -1 12 3 12 9 0 5 -7 10 -15 10
-9 0 -12 6 -9 15 5 12 10 13 20 4 13 -10 18 -6 15 14 0 4 5 7 12 7 9 0 9 2 -1
8 -10 7 -10 14 3 38 8 16 15 23 15 17 0 -21 20 -15 30 10 5 12 9 18 9 12 1
-14 31 45 31 61 0 8 5 14 12 14 6 0 9 3 5 6 -3 4 1 13 9 21 13 14 13 17 -2 34
-25 28 -4 45 23 20 22 -21 63 -18 63 4 0 7 7 16 16 19 23 9 27 8 21 -9 -4 -8
-2 -17 3 -20 9 -6 14 8 8 20 -2 2 6 11 17 19 19 15 19 15 1 16 -16 0 -15 4 10
25 17 15 23 25 15 25 -8 0 -11 3 -8 7 4 3 1 13 -5 22 -10 13 -10 14 2 4 8 -7
17 -13 22 -13 8 0 4 92 -5 107 -3 5 -2 15 4 23 7 13 9 13 9 1 0 -8 3 -12 6 -8
3 3 2 12 -2 19 -13 21 -12 46 3 41 19 -7 16 22 -4 42 -14 14 -14 18 -2 26 8 5
22 9 32 9 10 0 18 8 18 20 3 47 13 58 44 52 20 -3 24 -1 19 12 -3 9 -12 16
-20 16 -8 0 -14 5 -14 10 0 6 7 10 16 10 11 0 14 6 9 20 -5 14 -2 20 9 20 9 0
16 7 16 15 0 9 10 15 23 16 16 1 18 2 5 6 -19 5 -25 33 -8 33 6 0 10 -5 10
-11 0 -8 5 -7 15 1 9 7 13 15 10 18 -3 3 0 11 6 19 6 7 8 13 3 13 -5 0 2 7 14
16 12 8 19 20 16 26 -4 7 -2 8 4 4 7 -4 12 -3 12 2 0 15 63 24 71 11 4 -6 12
-8 19 -4 9 5 11 4 6 -3 -4 -7 -15 -12 -24 -13 -11 -1 -8 -4 8 -9 l25 -8 -23
-7 c-13 -4 -21 -13 -19 -19 2 -6 -3 -16 -12 -23 -11 -8 -12 -12 -3 -13 6 0 12
-7 12 -16 0 -24 -33 -114 -42 -114 -5 0 -8 -4 -8 -10 0 -5 3 -9 8 -9 17 3 46
-3 35 -7 -7 -3 -2 -15 13 -31 14 -15 23 -31 21 -37 -2 -6 2 -21 9 -35 9 -16
10 -31 3 -48 -5 -13 -12 -57 -15 -96 -3 -40 -8 -75 -11 -79 -2 -5 4 -8 14 -9
10 0 13 -3 6 -6 -20 -7 3 -42 27 -40 11 1 20 5 20 9 0 4 7 5 16 1 16 -6 16 -7
0 -18 -19 -14 -21 -26 -3 -20 6 3 18 1 26 -4 12 -8 12 -12 2 -25 -12 -14 -10
-16 9 -16 16 0 20 -4 16 -15 -3 -8 0 -15 6 -15 9 0 9 -3 0 -12 -20 -20 -14
-35 39 -88 31 -31 47 -55 43 -63 -4 -6 -4 -9 1 -5 10 9 49 -38 68 -82 12 -28
16 -31 16 -13 1 12 -3 25 -9 28 -19 12 -10 36 18 46 l27 11 -25 10 c-61 24
-95 47 -98 68 -5 31 16 80 52 119 17 18 24 31 16 29 -8 -3 -20 2 -26 11 -14
19 -1 52 27 69 24 15 34 -4 26 -48 -6 -27 -4 -28 16 -21 17 7 29 1 59 -27 42
-40 47 -66 22 -113 -19 -37 -15 -43 19 -28 37 17 94 4 102 -24 11 -40 28 -66
38 -60 6 4 8 0 4 -9 -7 -19 11 -38 36 -38 43 0 100 -96 79 -131 -15 -24 -15
-32 1 -24 6 4 4 0 -7 -9 -29 -23 -10 -36 45 -31 40 4 58 1 84 -15 31 -19 33
-24 30 -65 -2 -24 -12 -56 -21 -71 l-18 -27 63 7 c51 6 66 4 81 -9 19 -17 17
-47 -6 -66 -24 -20 -15 -28 17 -17 21 7 33 7 38 0 3 -5 15 -10 26 -10 11 1 26
0 32 -1 18 -2 45 -58 33 -66 -18 -11 -11 -25 12 -25 21 0 22 -1 4 -18 -17 -16
-19 -16 -29 -1 -10 15 -16 14 -68 -13 -57 -30 -57 -30 -88 -12 -17 10 -31 24
-31 32 0 7 -5 10 -11 6 -7 -4 -1 -16 15 -33 15 -15 23 -30 19 -34 -3 -4 1 -7
11 -7 9 0 19 -7 22 -15 3 -8 15 -17 26 -21 12 -3 17 -11 14 -21 -4 -11 -1 -13
14 -8 11 4 20 2 20 -4 0 -6 5 -10 12 -8 6 1 17 -9 24 -23 9 -17 25 -27 51 -31
21 -4 40 -3 41 2 2 5 8 9 14 9 18 0 35 -26 42 -65 12 -65 87 -185 116 -185 6
0 10 -7 10 -15 0 -9 9 -15 24 -15 13 0 27 -7 30 -16 5 -13 9 -14 20 -5 19 16
32 -5 16 -24 -10 -12 -9 -15 3 -15 8 0 18 -6 20 -12 4 -10 6 -10 6 0 1 7 6 10
11 7 8 -5 8 -11 0 -20 -9 -11 -7 -12 9 -8 12 3 18 9 15 15 -7 11 14 38 30 38
6 0 4 -5 -4 -10 -8 -5 -11 -10 -5 -10 5 0 20 12 33 28 20 24 22 24 12 3 -9
-17 -9 -26 -1 -34 15 -15 32 8 24 32 -4 14 -3 14 6 1 9 -13 12 -13 20 -1 7 11
11 10 19 -4 9 -17 11 -16 23 6 7 13 12 27 11 32 -3 12 16 8 20 -5 4 -11 48 55
48 73 0 5 7 9 16 9 9 0 12 -5 8 -12 -4 -7 -3 -9 1 -5 5 4 10 13 11 20 5 31 10
43 22 52 7 6 14 21 15 33 1 20 3 21 13 8 6 -9 14 -16 16 -16 8 0 4 63 -4 76
-4 6 -3 26 2 43 5 18 7 47 5 66 -3 19 -1 37 5 40 5 3 7 14 5 25 -2 11 1 20 7
20 7 0 7 4 1 13 -12 15 -13 47 -1 47 4 0 3 10 -4 21 -10 17 -10 23 0 26 6 3
12 13 12 24 0 12 10 23 25 29 14 5 25 14 25 20 0 6 4 9 9 6 13 -8 17 12 17 77
-1 44 2 54 10 42 6 -8 26 -20 45 -27 29 -10 31 -12 13 -19 -10 -4 -13 -8 -6
-8 7 -1 10 -6 7 -11 -3 -6 1 -13 9 -16 9 -3 13 -10 10 -15 -3 -5 4 -9 15 -9
12 0 21 -7 21 -15 0 -8 4 -15 8 -15 5 0 14 -12 21 -27 10 -25 10 -26 -3 -10
-12 16 -14 16 -20 1 -10 -26 -7 -34 12 -34 20 -1 56 -29 65 -50 3 -10 6 -10 6
-2 1 14 31 17 31 2 0 -5 6 -9 13 -7 6 1 12 -6 12 -16 0 -22 25 -38 52 -33 16
4 19 0 17 -22 -2 -15 -1 -19 2 -9 3 9 9 17 14 17 5 0 14 -8 19 -17 10 -17 11
-16 12 2 1 11 1 24 0 28 -1 5 30 -19 68 -52 80 -68 94 -77 159 -97 71 -21 158
-17 256 11 106 31 120 31 41 1 -32 -13 -61 -28 -63 -34 -4 -13 79 -7 87 7 4 5
19 13 34 16 28 8 35 19 16 31 -16 10 47 35 68 27 10 -4 14 -2 10 4 -5 7 8 16
30 24 31 10 183 78 217 97 5 3 6 1 3 -5 -3 -5 -24 -18 -46 -28 -47 -21 -63
-46 -25 -39 13 2 42 14 63 25 22 11 49 21 60 22 12 1 21 5 21 9 0 4 6 8 13 8
7 0 33 9 57 21 32 16 40 23 29 30 -12 7 -11 9 1 9 17 0 59 -25 76 -46 11 -14
47 -1 92 34 l24 18 -44 90 c-23 49 -43 94 -43 99 0 6 -6 15 -14 21 -8 6 -11
16 -8 21 9 14 77 22 77 9 0 -5 8 -2 18 6 9 9 35 21 57 28 39 13 86 34 152 68
17 10 47 32 67 50 19 17 40 32 45 32 5 0 27 18 50 40 22 22 47 40 54 40 16 0
77 56 106 98 13 18 25 31 28 29 2 -3 24 14 48 37 58 54 75 68 75 60 0 -9 41
36 63 69 10 16 23 25 29 21 6 -4 8 -3 5 3 -8 12 16 36 26 27 3 -4 18 8 33 25
14 17 31 28 36 24 6 -3 8 -1 5 5 -10 14 2 42 18 42 7 0 25 14 39 31 14 17 30
28 34 25 8 -5 10 1 14 44 1 11 7 19 13 17 19 -8 35 22 39 70 0 11 4 19 8 17 4
-3 13 14 19 37 7 22 19 43 26 46 7 3 13 11 13 17 0 7 8 21 19 32 10 11 25 49
34 83 9 35 23 71 31 80 8 9 16 30 18 46 2 17 7 33 11 36 4 3 10 21 12 40 3 19
9 35 15 37 5 2 7 15 4 28 -4 15 -2 24 6 24 6 0 8 -4 5 -10 -3 -5 -1 -10 4 -10
6 0 11 4 11 9 0 5 7 17 16 26 11 10 18 38 20 80 3 58 1 65 -21 79 -31 20 -32
36 -2 37 16 1 18 2 5 6 -10 2 -18 9 -18 15 0 5 6 8 13 5 10 -4 12 13 11 72 0
42 3 84 8 94 5 10 5 17 -1 17 -5 0 -12 8 -14 18 -3 11 -5 9 -6 -8 -1 -19 -3
-22 -11 -10 -5 9 -5 19 0 26 6 6 7 14 3 18 -4 4 0 4 10 0 9 -3 17 -2 17 4 0 6
-5 12 -12 14 -7 3 -5 14 8 34 l18 29 -21 -18 c-21 -18 -21 -18 -28 14 -8 35
-11 31 75 94 31 22 40 35 36 50 -3 11 2 29 10 39 18 26 18 34 -3 32 -12 -1
-20 11 -26 37 -7 30 -13 37 -26 32 -9 -4 -21 -9 -27 -12 -8 -3 -12 13 -12 49
0 29 -6 67 -12 83 -7 17 -12 38 -11 47 2 13 -3 16 -16 12 -17 -5 -17 -4 1 10
14 11 24 13 37 5 25 -13 24 -4 -2 20 -19 18 -20 22 -6 35 8 8 17 12 21 9 9 -9
7 10 -3 26 -5 7 -14 11 -20 7 -7 -5 -8 -1 -4 10 4 12 3 15 -5 10 -8 -5 -10 2
-6 24 5 24 3 30 -11 30 -11 0 -15 -5 -11 -15 3 -9 0 -15 -9 -15 -8 0 -15 -9
-15 -19 0 -11 -5 -23 -12 -27 -7 -4 -8 -3 -4 5 4 6 3 17 -2 24 -5 7 -8 23 -7
36 2 21 0 22 -10 7 -11 -15 -13 -14 -19 10 -4 14 -5 29 -1 32 3 3 5 -3 6 -14
0 -10 3 -13 6 -6 7 18 30 15 43 -5 11 -17 11 -17 6 0 -3 10 -6 23 -6 28 0 5
-3 8 -7 8 -24 -4 -32 4 -30 30 1 16 6 27 11 23 5 -3 7 13 4 36 -4 26 -2 43 6
47 8 3 8 7 -2 11 -9 4 -8 12 5 34 16 28 16 30 -2 50 -10 11 -18 33 -17 49 0
16 -5 28 -11 28 -7 0 -27 5 -44 12 -29 11 -33 17 -33 51 0 27 -5 40 -17 45
-10 3 -19 1 -21 -4 -6 -18 -20 -12 -16 7 3 9 -4 27 -15 39 -22 23 -28 38 -11
28 6 -3 7 1 3 10 -8 23 -22 0 -24 -40 l-1 -30 -12 28 c-7 15 -15 24 -19 21 -4
-4 -7 0 -7 9 0 10 -5 14 -14 11 -11 -4 -14 4 -13 40 1 25 5 46 10 46 13 0 7
18 -9 24 -8 3 -12 2 -9 -4 7 -12 -26 -30 -50 -26 -24 3 -32 26 -14 37 11 6 10
9 -4 15 -9 3 -17 11 -17 18 0 6 -9 17 -20 24 -24 15 -26 29 -3 34 14 3 14 5
-2 18 -11 9 -16 10 -11 3 4 -7 3 -13 -2 -13 -6 0 -12 7 -16 15 -3 8 -1 15 3
15 5 0 11 7 15 15 4 12 0 14 -20 9 -13 -4 -23 -2 -22 3 4 13 -55 80 -59 67 -2
-7 -13 -10 -23 -7 -11 3 -17 9 -14 14 3 5 10 6 16 3 7 -4 8 -2 4 4 -4 7 -12
12 -17 12 -6 0 -17 7 -25 15 -12 12 -13 16 -2 19 39 12 41 14 16 15 -20 1 -26
5 -22 16 7 18 -7 20 -24 3 -9 -9 -12 -9 -12 1 0 7 -5 9 -12 5 -8 -5 -9 -2 -5
10 4 10 1 26 -7 37 -11 17 -14 18 -19 4 -4 -8 -4 -23 -1 -32 5 -16 4 -16 -10
1 -8 10 -13 23 -10 28 7 11 -24 60 -34 54 -10 -6 -87 49 -85 61 1 5 -8 9 -20
9 -14 -1 -26 8 -32 22 -5 12 -15 22 -22 22 -7 0 -19 16 -27 35 -21 50 -69 77
-129 72 -26 -2 -50 0 -53 5 -4 5 -15 7 -26 5 -15 -4 -25 3 -40 30 -16 27 -26
33 -42 29 -15 -4 -29 5 -54 32 -18 20 -43 47 -55 60 -12 12 -17 22 -12 23 6 0
-1 5 -14 10 -14 6 -21 15 -17 24 3 8 1 17 -5 20 -5 4 -7 11 -4 16 4 5 4 9 0 9
-3 0 -10 -10 -16 -22 -9 -21 -9 -21 -6 5 3 15 0 30 -4 33 -5 3 -9 16 -9 29 0
20 -7 25 -37 31 -25 5 -38 3 -41 -5 -6 -18 -18 -13 -19 11 -2 19 -18 37 -34
38 -3 0 -4 -12 -1 -26 3 -17 -2 -31 -15 -44 -25 -22 -43 -10 -43 30 -1 23 -2
24 -14 7 -11 -15 -15 -15 -25 -3 -19 23 -155 40 -204 26z m30 -16 c-3 -3 -12
-4 -19 -1 -8 3 -5 6 6 6 11 1 17 -2 13 -5z m160 -30 c-7 -7 -37 7 -37 17 0 6
9 5 21 -1 11 -7 19 -14 16 -16z m-157 -8 c0 -3 -4 -8 -10 -11 -5 -3 -10 -1
-10 4 0 6 5 11 10 11 6 0 10 -2 10 -4z m37 -52 c-3 -3 -12 -4 -19 -1 -8 3 -5
6 6 6 11 1 17 -2 13 -5z m-667 -324 c10 -6 21 -6 24 -1 6 9 54 3 71 -9 23 -16
44 -19 38 -4 -6 16 -2 17 22 8 13 -6 14 -9 3 -16 -8 -5 8 -6 40 -4 40 4 52 1
52 -10 0 -13 14 -18 47 -17 7 0 11 -4 10 -10 -2 -10 17 -22 78 -48 17 -7 34
-15 39 -18 5 -2 6 1 2 7 -5 8 3 12 22 12 21 0 31 -6 35 -20 4 -14 14 -20 34
-20 19 0 38 -9 53 -25 13 -14 31 -24 39 -23 9 2 16 -2 16 -9 0 -12 39 -49 58
-56 8 -3 5 -12 -8 -27 -17 -20 -18 -23 -2 -17 20 7 23 -13 5 -31 -9 -9 -8 -12
4 -12 8 0 21 -7 28 -15 11 -14 10 -14 -13 -6 -24 9 -25 8 -24 -24 0 -19 5 -32
9 -29 4 3 8 -2 8 -11 0 -9 4 -14 9 -10 10 5 26 -12 26 -29 0 -6 14 -13 30 -18
17 -5 37 -14 45 -21 26 -20 51 -67 44 -79 -4 -6 -3 -8 4 -5 14 9 38 -1 40 -16
1 -7 3 -34 5 -62 2 -39 7 -51 21 -53 17 -4 17 -5 0 -23 -18 -20 -6 -27 13 -8
6 6 16 8 22 5 17 -11 13 -34 -6 -45 -16 -9 -16 -10 -1 -11 9 0 18 -8 21 -17 3
-13 7 -10 17 15 6 17 18 32 26 32 8 0 14 5 14 11 0 6 6 9 14 6 8 -3 17 -3 19
1 2 4 2 2 1 -5 -2 -7 3 -24 11 -39 7 -15 11 -33 8 -40 -3 -8 0 -14 6 -14 7 0
28 -16 48 -35 20 -20 43 -33 50 -31 7 3 13 1 13 -4 0 -6 9 -10 19 -10 11 0 22
-6 24 -12 4 -10 8 -9 16 2 8 12 11 8 11 -17 0 -27 4 -32 30 -38 33 -7 41 -24
13 -26 -17 -1 -17 -2 0 -6 10 -3 35 -21 55 -41 21 -20 50 -43 65 -49 15 -7 27
-16 27 -21 0 -9 35 -12 68 -6 13 3 20 9 17 14 -3 6 -1 10 4 10 6 0 11 -7 11
-15 0 -8 6 -15 13 -15 9 0 9 -2 0 -8 -9 -6 -7 -12 7 -25 17 -14 18 -21 10 -37
-12 -23 -25 -27 -16 -5 3 10 -1 15 -11 15 -9 0 -13 -3 -9 -7 3 -4 -6 -12 -21
-19 -23 -10 -25 -13 -11 -19 15 -6 15 -8 -3 -26 -10 -10 -23 -19 -29 -19 -5 0
-10 -4 -10 -10 0 -5 7 -10 15 -10 8 0 15 -7 15 -16 0 -12 -6 -15 -25 -10 -18
5 -25 2 -25 -9 0 -8 5 -15 11 -15 20 0 39 -29 39 -62 0 -18 9 -52 20 -75 11
-25 15 -45 9 -48 -5 -4 -8 -16 -8 -28 1 -20 2 -20 6 -2 7 30 21 41 35 27 7 -7
20 -12 30 -12 20 0 25 -26 6 -33 -10 -3 -9 -9 3 -22 16 -16 17 -16 24 4 8 27
25 27 25 0 0 -11 4 -18 9 -14 5 3 12 1 16 -5 4 -6 11 -7 17 -4 7 4 8 2 4 -4
-4 -7 -3 -12 3 -12 5 0 11 -10 13 -21 2 -12 12 -27 23 -33 11 -6 23 -16 28
-23 4 -7 14 -10 22 -7 8 4 15 1 15 -5 0 -7 8 -11 17 -9 12 2 19 -6 24 -27 4
-16 7 -27 8 -22 0 4 16 0 34 -10 24 -13 28 -18 15 -21 -14 -3 -15 -8 -8 -28
13 -33 13 -34 -5 -34 -9 0 -12 6 -8 18 5 14 3 13 -10 -3 -14 -19 -14 -20 4
-23 18 -3 20 -9 14 -44 -13 -72 -14 -108 -4 -113 5 -4 9 2 9 12 0 15 2 16 11
3 6 -9 12 -11 15 -4 5 12 64 6 64 -7 0 -4 -8 -13 -17 -19 -16 -10 -15 -11 4
-7 19 4 24 -1 31 -26 4 -17 13 -32 20 -35 7 -2 12 0 10 5 -4 15 23 83 33 83 6
0 7 -10 4 -22 -12 -37 -11 -39 15 -56 23 -16 24 -16 12 0 -10 12 -11 22 -3 35
10 17 10 17 11 -2 0 -12 5 -26 10 -31 15 -15 2 -44 -16 -37 -8 3 -14 -1 -14
-11 0 -9 8 -16 20 -16 17 0 18 -3 10 -26 -14 -35 -13 -57 2 -48 8 5 9 2 4 -12
-12 -29 -24 -124 -16 -124 13 0 5 -117 -9 -134 -7 -8 -10 -20 -6 -26 3 -5 1
-10 -5 -10 -6 0 -9 -4 -5 -9 3 -5 1 -13 -5 -16 -6 -4 -10 -3 -9 2 5 28 -4 33
-15 8 -7 -16 -11 -49 -8 -72 4 -36 1 -45 -27 -72 -17 -17 -31 -40 -31 -51 0
-12 -4 -19 -9 -15 -5 3 -12 -4 -16 -15 -4 -11 -11 -18 -16 -15 -5 4 -9 -5 -9
-19 0 -14 -4 -26 -10 -26 -5 0 -9 -3 -8 -7 1 -5 -6 -25 -15 -47 -9 -21 -17
-45 -17 -53 0 -8 -9 -17 -20 -20 -11 -3 -20 -9 -20 -15 0 -5 -9 -4 -20 2 -16
8 -20 8 -20 -4 0 -9 -6 -13 -14 -10 -9 3 -19 -4 -27 -18 -16 -30 -48 -60 -82
-76 -17 -7 -25 -17 -21 -24 4 -6 3 -8 -4 -4 -11 7 -85 -62 -96 -89 -3 -9 -11
-15 -18 -13 -15 5 -78 -65 -78 -87 0 -10 -3 -15 -6 -12 -4 3 -15 -5 -26 -18
-11 -14 -27 -25 -36 -25 -9 0 -26 -10 -37 -23 -11 -13 -35 -32 -52 -42 -18
-11 -33 -23 -33 -27 0 -4 -3 -8 -7 -8 -5 0 -57 -47 -118 -105 -60 -58 -112
-105 -115 -105 -3 0 -26 37 -52 83 -51 90 -52 98 -16 174 15 32 18 53 13 87
-5 28 -11 43 -18 39 -10 -6 -7 13 8 50 6 13 3 16 -9 11 -11 -4 -16 0 -16 14 0
11 -3 28 -6 36 -6 15 -8 15 -20 -1 -13 -17 -13 -17 -15 2 -1 11 0 31 1 44 1
14 -2 21 -9 17 -7 -5 -11 3 -12 21 0 15 -3 22 -6 16 -8 -22 -23 -14 -23 13 0
14 -4 23 -10 19 -14 -8 -40 19 -40 42 0 15 -2 16 -10 3 -8 -12 -10 -10 -11 10
0 14 -3 19 -6 13 -2 -7 -9 -13 -14 -13 -6 0 -8 4 -5 9 8 12 -10 58 -30 79 -15
15 -16 14 -10 -6 5 -13 3 -22 -3 -22 -6 0 -11 7 -11 15 0 27 -33 86 -41 73 -5
-8 -10 -2 -14 15 -6 21 -10 25 -20 17 -10 -8 -14 -4 -19 16 -5 17 -12 24 -21
20 -9 -3 -15 1 -15 10 0 8 -4 13 -9 9 -6 -3 -8 6 -5 20 2 15 0 25 -7 25 -6 0
-8 7 -5 16 3 8 2 12 -4 9 -6 -3 -10 -15 -10 -25 0 -10 -5 -22 -12 -26 -8 -5
-9 0 -5 15 3 12 0 33 -7 46 -11 21 -13 22 -23 7 -9 -15 -12 -12 -21 18 -9 30
-10 32 -12 10 -1 -16 -4 -19 -7 -10 -3 8 -11 22 -19 30 -13 15 -13 17 -15 48
0 10 -3 12 -6 5 -2 -7 -9 -13 -14 -13 -6 0 -7 5 -3 11 8 14 -14 29 -43 29 -18
0 -23 6 -23 24 0 22 -15 35 -50 42 -8 2 -16 8 -18 14 -2 5 -7 8 -11 5 -5 -2
-22 0 -39 5 -26 7 -34 5 -42 -8 -6 -12 -9 -13 -10 -3 0 7 -6 11 -14 8 -7 -3
-28 10 -47 29 -34 35 -62 47 -38 17 13 -17 12 -17 -5 -3 -10 8 -35 39 -55 70
-43 63 -126 224 -112 216 5 -4 12 -2 16 4 3 5 1 10 -5 10 -6 0 -8 5 -5 10 3 6
1 10 -5 10 -7 0 -5 11 6 28 14 25 15 35 4 78 -6 27 -13 61 -13 76 -1 14 -6 30
-10 34 -4 5 -5 0 -1 -11 3 -11 -3 -5 -15 13 -24 36 -27 57 -8 46 8 -6 8 -3 -1
9 -8 9 -11 21 -7 27 3 5 1 10 -4 10 -6 0 -11 7 -11 15 0 8 -5 14 -12 13 -7 -2
-17 7 -23 20 -5 12 -13 22 -17 22 -5 0 -8 7 -8 16 0 9 5 13 13 9 6 -4 2 2 -9
12 -12 11 -25 29 -28 41 -4 12 -11 21 -17 19 -9 -2 -33 32 -45 64 -3 9 -18 20
-32 26 -25 10 -26 11 -4 12 12 1 22 6 22 11 0 6 0 13 0 18 0 4 -6 7 -12 7 -7
0 -12 8 -12 17 2 19 -79 91 -90 80 -4 -3 -4 1 0 11 4 11 0 19 -10 23 -9 3 -13
10 -10 15 3 5 0 9 -6 9 -6 0 -8 5 -4 12 14 22 14 60 0 55 -7 -3 -23 4 -37 14
-16 13 -19 19 -9 19 12 1 11 3 -2 11 -10 5 -20 10 -23 9 -9 0 -45 39 -45 50 0
6 5 10 10 10 6 0 5 8 -2 20 -7 11 -21 20 -31 20 -10 0 -16 4 -12 9 8 14 -46
52 -66 46 -9 -3 -20 -1 -24 5 -3 5 -15 10 -26 10 -11 0 -18 4 -15 9 7 11 -37
23 -57 16 -18 -7 -38 11 -133 120 -44 50 -92 105 -109 123 -39 44 -49 70 -27
68 9 0 16 5 14 12 -2 9 4 12 17 7 25 -8 69 13 77 37 3 12 11 17 21 14 9 -4 17
1 20 13 3 11 17 21 34 25 16 3 29 11 29 17 0 8 -4 8 -14 0 -9 -7 -17 -8 -20
-2 -8 13 77 53 98 45 10 -4 16 -1 16 7 0 7 3 10 6 7 3 -3 17 6 31 20 15 14 28
21 32 15 3 -6 14 -7 26 -2 17 6 17 8 3 8 -10 1 -18 5 -18 9 0 5 14 6 31 4 22
-3 30 -1 25 7 -5 7 4 11 28 11 20 0 36 5 36 11 0 6 -9 8 -20 4 -11 -4 -20 -2
-20 4 0 6 9 11 20 11 11 0 20 5 20 10 0 6 16 10 35 10 19 0 35 5 35 10 0 6 7
10 15 10 9 0 18 7 21 15 4 8 12 15 20 15 8 0 14 7 14 15 0 8 7 15 15 15 15 0
19 10 16 43 -1 9 5 20 13 23 9 3 14 10 11 14 -11 17 8 39 38 46 30 6 31 7 10
15 -25 9 -30 17 -10 16 6 0 23 1 37 2 20 1 22 3 10 11 -8 5 -10 10 -5 10 6 0
3 5 -5 10 -13 8 -12 10 3 10 9 0 17 -4 17 -10 0 -5 8 -10 18 -9 10 0 12 3 5 6
-20 8 -15 23 7 23 11 0 20 5 20 10 0 6 8 10 18 10 31 0 47 16 34 33 -10 12
-10 15 0 14 33 -1 48 4 48 17 0 7 12 16 28 19 111 22 147 39 105 50 -10 3 -12
5 -5 6 7 0 22 -4 32 -9z m1327 -12 c-3 -8 -6 -5 -6 6 -1 11 2 17 5 13 3 -3 4
-12 1 -19z m103 -3 c-7 -9 -15 -13 -17 -11 -7 7 7 26 19 26 6 0 6 -6 -2 -15z
m20 -61 c0 -8 -4 -14 -10 -14 -5 0 -10 9 -10 21 0 11 5 17 10 14 6 -3 10 -13
10 -21z m-684 -227 c1 -9 -3 -17 -9 -17 -19 0 -40 17 -43 33 -1 11 4 13 24 8
14 -4 26 -15 28 -24z m-1206 -37 c0 -5 -9 -10 -19 -10 -11 0 -21 -5 -23 -12
-3 -7 -7 -5 -11 6 -4 9 -3 15 1 13 4 -3 16 -1 27 4 11 4 21 8 23 8 1 1 2 -3 2
-9z m-92 -67 c-10 -2 -26 -2 -35 0 -10 3 -2 5 17 5 19 0 27 -2 18 -5z m1632
-13 c0 -5 -5 -10 -11 -10 -5 0 -7 5 -4 10 3 6 8 10 11 10 2 0 4 -4 4 -10z
m617 -12 c-3 -8 -6 -5 -6 6 -1 11 2 17 5 13 3 -3 4 -12 1 -19z m-497 -3 c0 -8
-5 -15 -11 -15 -5 0 -8 -4 -4 -9 3 -5 1 -12 -5 -16 -6 -4 -10 6 -10 24 0 21 5
31 15 31 8 0 15 -7 15 -15z m500 -56 c0 -5 -4 -9 -8 -9 -5 0 -9 7 -9 15 0 8 4
12 9 9 4 -3 8 -9 8 -15z m-570 -9 c-8 -6 -24 -10 -35 -9 -15 0 -13 3 10 13 32
14 49 11 25 -4z m440 10 c0 -5 -4 -10 -10 -10 -5 0 -10 5 -10 10 0 6 5 10 10
10 6 0 10 -4 10 -10z m-350 -24 c0 -2 -7 -7 -16 -10 -8 -3 -12 -2 -9 4 6 10
25 14 25 6z m330 -46 c13 -9 13 -10 0 -10 -8 0 -22 5 -30 10 -13 9 -13 10 0
10 8 0 22 -5 30 -10z m-640 -62 c0 -13 -23 -5 -28 10 -2 7 2 10 12 6 9 -3 16
-11 16 -16z m930 -8 c0 -5 -4 -10 -10 -10 -5 0 -10 5 -10 10 0 6 5 10 10 10 6
0 10 -4 10 -10z m-889 -31 c20 -14 29 -16 29 -7 0 10 3 9 10 -2 6 -9 5 -17 -2
-21 -6 -4 -7 -12 -4 -18 9 -13 1 -14 -42 -2 -22 7 -32 6 -32 -1 0 -23 -14 3
-15 30 -3 49 10 54 56 21z m439 -3 c0 -3 -4 -8 -10 -11 -5 -3 -10 -1 -10 4 0
6 5 11 10 11 6 0 10 -2 10 -4z m635 -35 c1 -17 -1 -28 -6 -25 -5 3 -9 11 -9
19 0 7 -6 16 -12 18 -10 4 -9 8 2 16 18 13 22 9 25 -28z m-990 9 c3 -5 -1 -10
-9 -10 -9 0 -16 5 -16 10 0 6 4 10 9 10 6 0 13 -4 16 -10z m409 -52 c4 -17 2
-28 -4 -28 -5 0 -10 9 -10 19 0 11 -3 28 -6 38 -5 12 -4 15 3 8 6 -5 13 -22
17 -37z m-470 6 c20 -8 11 -24 -15 -24 -10 0 -19 7 -19 15 0 16 9 19 34 9z
m271 -24 c3 -5 1 -10 -4 -10 -6 0 -11 5 -11 10 0 6 2 10 4 10 3 0 8 -4 11 -10z
m-159 -34 c16 -17 19 -30 4 -21 -5 3 -10 2 -10 -4 0 -5 5 -12 10 -14 6 -3 5
-4 -2 -3 -7 2 -13 9 -13 17 0 8 -4 20 -8 27 -11 16 1 15 19 -2z m460 -13 c-10
-10 -19 5 -10 18 6 11 8 11 12 0 2 -7 1 -15 -2 -18z m-311 7 c3 -6 -1 -7 -9
-4 -18 7 -21 14 -7 14 6 0 13 -4 16 -10z m62 -37 c-3 -10 -5 -4 -5 12 0 17 2
24 5 18 2 -7 2 -21 0 -30z m347 5 c3 -17 4 -34 1 -37 -9 -8 -25 21 -25 47 0
33 17 27 24 -10z m86 10 c0 -5 5 -6 10 -3 12 7 12 3 4 -19 -8 -22 -43 -2 -41
23 1 19 27 18 27 -1z m-3352 -13 c-3 -3 -9 2 -12 12 -6 14 -5 15 5 6 7 -7 10
-15 7 -18z m3892 16 c0 -6 -4 -13 -10 -16 -5 -3 -10 1 -10 9 0 9 5 16 10 16 6
0 10 -4 10 -9z m-3569 -79 c-9 -31 -27 -55 -77 -99 -265 -234 -400 -412 -434
-575 -11 -55 -3 -119 25 -190 6 -15 -1 -14 -55 8 -80 32 -196 48 -238 33 -13
-5 -45 -12 -70 -15 -26 -3 -57 -12 -69 -20 -30 -19 -64 -19 -56 1 3 9 2 15 -3
14 -27 -5 -36 1 -24 16 7 8 19 15 26 15 8 0 11 6 8 15 -4 9 3 19 20 26 14 7
26 16 26 21 0 7 36 48 147 165 17 18 29 33 26 33 -2 0 12 19 31 42 20 23 36
48 36 55 0 7 5 13 10 13 6 0 10 11 10 24 0 13 11 34 25 47 13 13 25 30 25 37
0 6 4 12 9 12 5 0 13 9 16 20 3 11 13 20 21 20 8 0 13 4 10 9 -3 5 1 14 9 21
8 7 15 9 15 6 0 -4 16 5 35 19 19 15 39 24 44 21 5 -4 21 4 34 16 58 53 73 63
99 62 15 -1 26 4 25 10 -1 5 5 11 13 12 8 0 24 2 35 3 14 1 16 4 7 9 -9 6 0
13 28 22 22 7 47 21 56 32 10 10 23 18 31 18 18 0 44 25 36 34 -4 3 4 6 16 6
12 0 32 9 43 20 30 28 42 11 29 -38z m-331 30 c0 -5 -7 -9 -15 -9 -8 0 -15 4
-15 9 0 4 7 8 15 8 8 0 15 -4 15 -8z m2780 -2 c0 -12 -8 -12 -35 0 -18 8 -17
9 8 9 15 1 27 -3 27 -9z m50 -14 c0 -3 -4 -8 -10 -11 -5 -3 -10 -1 -10 4 0 6
5 11 10 11 6 0 10 -2 10 -4z m-2970 -49 c0 -6 3 -7 7 -4 3 4 13 -2 21 -14 20
-28 13 -30 -30 -9 -21 10 -38 16 -38 12 0 -3 -5 -1 -11 5 -6 6 -9 16 -5 21 7
12 56 3 56 -11z m126 11 c5 -8 2 -9 -11 -4 -15 5 -16 4 -5 -9 15 -18 6 -45
-15 -45 -12 0 -14 6 -9 28 11 45 25 55 40 30z m3126 -18 c6 -38 -10 -53 -36
-34 -11 8 -15 14 -10 14 6 0 15 -5 22 -12 8 -8 10 -2 5 25 -3 22 -2 37 5 37 5
0 12 -14 14 -30z m-65 -46 c3 -8 12 -13 19 -10 20 8 44 -4 44 -21 0 -8 -4 -12
-9 -9 -4 3 -22 2 -38 -3 -41 -12 -56 -1 -48 35 5 26 4 26 -4 7 -12 -26 -27
-32 -17 -7 3 8 1 24 -5 35 -10 20 -9 20 21 4 17 -9 34 -23 37 -31z m633 32 c0
-3 -4 -8 -10 -11 -5 -3 -10 -1 -10 4 0 6 5 11 10 11 6 0 10 -2 10 -4z m121
-54 c-7 -2 -18 1 -23 6 -8 8 -4 9 13 5 13 -4 18 -8 10 -11z m123 2 c3 -8 2
-12 -4 -9 -6 3 -10 10 -10 16 0 14 7 11 14 -7z m-714 -4 c0 -5 -4 -10 -10 -10
-5 0 -10 5 -10 10 0 6 5 10 10 10 6 0 10 -4 10 -10z m640 -20 c0 -5 -4 -10
-10 -10 -5 0 -10 5 -10 10 0 6 5 10 10 10 6 0 10 -4 10 -10z m-836 -25 c-6
-16 -24 -21 -24 -7 0 11 11 22 21 22 5 0 6 -7 3 -15z m96 -15 c0 -5 -2 -10 -4
-10 -3 0 -8 5 -11 10 -3 6 -1 10 4 10 6 0 11 -4 11 -10z m151 -10 c-26 -22
-37 -25 -46 -10 -3 6 3 10 15 10 12 0 18 5 15 10 -3 6 4 10 17 10 l23 -1 -24
-19z m-29 -30 c26 0 29 -2 18 -15 -8 -10 -17 -12 -24 -6 -7 6 -17 6 -26 1 -23
-15 -34 -12 -20 5 11 13 10 14 -5 9 -13 -5 -16 -4 -11 5 5 7 15 10 23 7 8 -3
28 -6 45 -6z m68 0 c0 -5 -5 -10 -11 -10 -5 0 -7 5 -4 10 3 6 8 10 11 10 2 0
4 -4 4 -10z m295 0 c3 -5 1 -10 -4 -10 -6 0 -11 5 -11 10 0 6 2 10 4 10 3 0 8
-4 11 -10z m-331 -34 c-3 -8 -12 -17 -20 -20 -11 -4 -12 -2 -1 14 14 23 29 27
21 6z m211 4 c8 -12 -12 -50 -27 -50 -5 0 -8 9 -5 20 3 11 1 20 -4 20 -5 0 -9
5 -9 10 0 13 37 13 45 0z m-245 -4 c0 -3 -4 -8 -10 -11 -5 -3 -10 -1 -10 4 0
6 5 11 10 11 6 0 10 -2 10 -4z m-2320 -86 c6 0 8 -5 5 -10 -3 -6 12 -31 33
-58 22 -26 58 -77 81 -114 23 -36 49 -69 58 -72 9 -4 13 -9 10 -12 -3 -3 18
-42 47 -87 75 -116 166 -267 166 -275 0 -3 -57 79 -126 184 -70 104 -163 238
-208 298 -44 60 -80 113 -78 118 1 5 -12 28 -29 51 l-31 42 31 -32 c17 -18 36
-33 41 -33z m2771 33 c-12 -20 -14 -14 -5 12 4 9 9 14 11 11 3 -2 0 -13 -6
-23z m-4081 -78 c-7 -9 -15 -13 -17 -11 -7 7 7 26 19 26 6 0 6 -6 -2 -15z
m3865 5 c13 -6 15 -9 5 -9 -8 0 -22 4 -30 9 -18 12 -2 12 25 0z m605 -80 c0
-5 -9 -10 -21 -10 -11 0 -17 5 -14 10 3 6 13 10 21 10 8 0 14 -4 14 -10z
m-4597 -55 c-3 -9 -8 -14 -10 -11 -3 3 -2 9 2 15 9 16 15 13 8 -4z m-34 -31
c-6 -8 -15 -12 -18 -8 -3 4 0 9 7 11 6 3 9 10 6 15 -4 7 -2 8 5 4 9 -6 9 -11
0 -22z m3911 22 c0 -3 -4 -8 -10 -11 -5 -3 -10 -1 -10 4 0 6 5 11 10 11 6 0
10 -2 10 -4z m-3950 -56 c0 -5 -2 -10 -4 -10 -3 0 -8 5 -11 10 -3 6 -1 10 4
10 6 0 11 -4 11 -10z m1830 -20 c0 -14 -28 -1 -34 16 -4 12 -2 12 14 4 11 -6
20 -15 20 -20z m-1860 16 c0 -2 -8 -10 -17 -17 -16 -13 -17 -12 -4 4 13 16 21
21 21 13z m3800 -41 c-7 -9 -15 -13 -19 -10 -3 3 1 10 9 15 21 14 24 12 10 -5z
m-3845 -15 c-3 -5 -13 -10 -21 -10 -8 0 -15 -10 -15 -22 -1 -20 -2 -21 -6 -4
-3 12 2 25 13 33 21 15 38 17 29 3z m3886 -28 c-7 -2 -19 -1 -29 3 -14 5 -14
7 -2 15 9 5 20 4 28 -3 10 -8 11 -12 3 -15z m323 2 c3 -8 2 -12 -4 -9 -6 3
-10 10 -10 16 0 14 7 11 14 -7z m-4294 -47 c0 -8 -6 -14 -14 -14 -8 0 -12 6
-9 14 3 7 9 13 14 13 5 0 9 -6 9 -13z m4713 -32 c-3 -9 -8 -14 -10 -11 -3 3
-2 9 2 15 9 16 15 13 8 -4z m-418 -24 c-3 -6 -14 -11 -23 -11 -13 0 -13 2 4
14 21 15 30 14 19 -3z m578 -6 c-3 -9 -8 -14 -10 -11 -3 3 -2 9 2 15 9 16 15
13 8 -4z m-4903 -29 c0 -3 -23 -2 -55 3 -5 1 -3 5 4 10 13 8 51 -2 51 -13z
m2120 4 c0 -5 -4 -10 -9 -10 -6 0 -13 5 -16 10 -3 6 1 10 9 10 9 0 16 -4 16
-10z m-1380 -180 c100 -201 207 -350 368 -514 79 -82 89 -94 51 -68 -71 48
-204 204 -315 369 -54 81 -161 295 -169 338 -5 28 -4 28 8 -5 8 -19 33 -73 57
-120z m-613 76 c-8 -9 -22 -16 -30 -16 -8 0 -21 -10 -29 -22 -15 -22 -48 -20
-48 2 0 6 5 8 10 5 6 -3 10 2 10 11 0 10 3 14 7 11 3 -4 12 2 20 13 8 11 21
20 29 20 8 0 14 5 14 12 0 8 6 6 16 -4 15 -15 15 -18 1 -32z m4833 24 c-20
-13 -33 -13 -25 0 3 6 14 10 23 10 15 0 15 -2 2 -10z m-670 -25 c7 -9 8 -15 2
-15 -5 0 -12 7 -16 15 -3 8 -4 15 -2 15 2 0 9 -7 16 -15z m-4285 -45 c3 -5 1
-10 -4 -10 -6 0 -11 5 -11 10 0 6 2 10 4 10 3 0 8 -4 11 -10z m2180 -10 c3 -5
2 -10 -4 -10 -5 0 -13 5 -16 10 -3 6 -2 10 4 10 5 0 13 -4 16 -10z m-2185 -14
c0 -3 -4 -8 -10 -11 -5 -3 -10 -1 -10 4 0 6 5 11 10 11 6 0 10 -2 10 -4z m-30
-25 c0 -6 -4 -13 -10 -16 -5 -3 -10 1 -10 9 0 9 5 16 10 16 6 0 10 -4 10 -9z
m2164 -17 c3 -8 2 -12 -4 -9 -6 3 -10 10 -10 16 0 14 7 11 14 -7z m-2204 -4
c0 -5 -5 -10 -11 -10 -5 0 -7 5 -4 10 3 6 8 10 11 10 2 0 4 -4 4 -10z m4394
-5 c3 -8 1 -15 -4 -15 -6 0 -10 7 -10 15 0 8 2 15 4 15 2 0 6 -7 10 -15z m-4
-40 c0 -8 -4 -15 -10 -15 -5 0 -10 7 -10 15 0 8 5 15 10 15 6 0 10 -7 10 -15z
m-4340 -5 c0 -5 -5 -10 -11 -10 -5 0 -7 5 -4 10 3 6 8 10 11 10 2 0 4 -4 4
-10z m-36 -17 c-5 -5 -12 -12 -16 -18 -4 -6 -8 -2 -8 8 0 9 7 17 17 17 9 0 12
-3 7 -7z m186 -8 c0 -8 -2 -15 -4 -15 -2 0 -6 7 -10 15 -3 8 -1 15 4 15 6 0
10 -7 10 -15z m53 -1 c-4 -12 -7 -13 -14 -3 -4 8 -11 10 -15 6 -4 -4 -2 -13 4
-19 7 -7 12 -17 12 -22 0 -6 -7 0 -16 12 -18 25 -11 42 16 42 14 0 18 -5 13
-16z m-368 -34 c3 -5 1 -10 -4 -10 -6 0 -11 5 -11 10 0 6 2 10 4 10 3 0 8 -4
11 -10z m228 -15 c-3 -9 -8 -14 -10 -11 -3 3 -2 9 2 15 9 16 15 13 8 -4z
m4321 7 c-5 -4 -12 -11 -15 -15 -3 -5 -9 -2 -12 5 -3 9 3 14 15 15 11 1 16 -1
12 -5z m136 -2 c0 -5 -4 -10 -10 -10 -5 0 -10 5 -10 10 0 6 5 10 10 10 6 0 10
-4 10 -10z m-4770 -40 c0 -5 -2 -10 -4 -10 -3 0 -8 5 -11 10 -3 6 -1 10 4 10
6 0 11 -4 11 -10z m489 -17 c0 -25 -1 -26 -9 -8 -12 27 -12 35 0 35 6 0 10
-12 9 -27z m265 13 c-6 -15 28 -40 39 -30 3 3 14 1 24 -6 15 -9 12 -10 -19 -6
-21 2 -38 1 -38 -5 0 -5 5 -9 10 -9 6 0 10 -8 10 -17 0 -13 3 -14 12 -5 8 8
15 9 25 0 10 -8 13 -8 10 3 -2 8 -2 11 0 7 3 -5 13 -8 24 -8 10 0 19 -5 19
-11 0 -7 10 -9 25 -7 14 3 25 1 25 -3 0 -5 -7 -9 -15 -9 -9 0 -19 -10 -24 -22
-10 -26 -4 -39 8 -20 5 9 20 2 52 -26 40 -36 42 -41 29 -57 -14 -16 -13 -17 8
-11 13 5 22 3 22 -3 0 -6 -4 -11 -10 -11 -18 0 -10 -19 11 -25 14 -5 25 -2 30
6 6 10 9 5 9 -14 0 -16 4 -26 9 -22 6 3 16 -2 23 -10 7 -9 19 -22 26 -30 8 -9
9 -15 3 -15 -6 0 -15 9 -21 20 -6 11 -18 20 -28 20 -13 0 -14 -2 -3 -9 8 -5 9
-11 3 -15 -6 -3 -13 3 -17 14 -4 11 -11 18 -16 14 -5 -3 -7 -10 -3 -15 3 -6
-3 -13 -15 -16 -17 -4 -19 -9 -10 -25 9 -17 8 -18 -13 -6 -13 7 -30 20 -38 29
-13 16 -16 16 -39 1 -27 -18 -54 -25 -45 -11 3 5 -1 9 -10 9 -8 0 -16 3 -19 8
-2 4 -2 1 -1 -5 2 -9 -9 -12 -35 -10 -33 2 -38 5 -30 19 11 20 -9 37 -21 18
-6 -9 -13 -9 -28 -1 -26 14 -28 14 -46 -5 -15 -14 -16 -14 -16 5 0 19 -11 25
-47 24 -6 0 -9 5 -7 11 3 7 -11 18 -31 26 -23 9 -31 16 -23 21 7 5 16 3 20 -4
6 -9 8 -9 8 1 0 6 7 12 16 12 8 0 12 -4 9 -10 -4 -6 1 -7 11 -3 13 5 15 3 9
-7 -5 -9 -4 -11 3 -6 13 8 -5 46 -21 46 -5 0 -1 7 8 16 18 19 13 29 -10 21 -8
-4 -15 -16 -15 -28 0 -18 -4 -20 -27 -14 -16 5 -35 8 -44 9 -14 0 -14 4 -5 21
6 11 16 23 23 28 7 4 10 14 7 21 -4 9 7 16 33 21 27 6 32 10 18 13 -30 6 -47
24 -42 43 3 10 0 20 -7 23 -6 2 -3 5 7 5 12 1 17 -5 15 -16 -2 -14 5 -18 35
-20 42 -1 47 4 15 17 l-23 9 23 0 c12 1 22 -3 22 -9 0 -5 5 -10 11 -10 5 0 7
5 4 10 -3 6 -1 10 4 10 16 0 13 -20 -4 -26 -15 -6 -22 -54 -7 -54 9 0 32 48
33 69 1 9 5 5 9 -9 7 -21 8 -18 9 18 1 25 5 41 11 37 5 -3 7 -12 3 -21 -6 -16
26 -46 40 -37 5 3 0 11 -9 18 -12 8 -15 18 -9 31 4 10 7 22 7 27 -1 4 5 7 13
7 8 0 12 -6 9 -14z m-544 -10 c0 -3 -4 -8 -10 -11 -5 -3 -10 -1 -10 4 0 6 5
11 10 11 6 0 10 -2 10 -4z m65 -6 c3 -6 -1 -7 -9 -4 -18 7 -21 14 -7 14 6 0
13 -4 16 -10z m-255 -25 c0 -8 -2 -15 -4 -15 -2 0 -6 7 -10 15 -3 8 -1 15 4
15 6 0 10 -7 10 -15z m141 -28 c-13 -13 -15 1 -4 30 7 17 8 17 11 -1 2 -10 -1
-23 -7 -29z m-239 0 c7 -7 25 -20 40 -29 16 -11 26 -26 25 -38 -2 -29 -17 -25
-17 5 0 14 -5 25 -11 25 -5 0 -7 -6 -3 -12 8 -13 -26 10 -37 25 -3 5 -9 1 -12
-8 -4 -9 -3 -13 3 -10 6 3 10 -1 10 -9 0 -9 6 -16 14 -16 8 0 17 -4 20 -9 3
-4 -5 -6 -18 -4 -23 5 -24 3 -19 -41 4 -40 2 -46 -15 -46 -10 0 -24 -10 -30
-22 -8 -18 -11 -19 -11 -5 -1 9 -6 17 -12 17 -6 0 -8 -7 -5 -16 3 -8 2 -12 -3
-9 -5 3 -12 -4 -16 -15 -3 -11 -13 -20 -22 -20 -11 0 -13 4 -6 13 5 6 9 19 8
27 -1 8 5 27 12 42 7 15 13 36 13 47 0 10 3 21 8 23 9 4 47 58 55 81 8 20 11
21 29 4z m598 3 c0 -6 -12 -8 -26 -6 -39 7 -42 16 -6 16 18 0 32 -5 32 -10z
m-130 -24 c0 -3 -4 -8 -10 -11 -5 -3 -10 -1 -10 4 0 6 5 11 10 11 6 0 10 -2
10 -4z m65 -6 c-3 -5 -12 -10 -18 -10 -7 0 -6 4 3 10 19 12 23 12 15 0z m-225
-30 c-8 -5 -17 -7 -19 -4 -3 3 1 9 9 14 8 5 17 7 19 4 3 -3 -1 -9 -9 -14z
m730 -14 c-13 -13 -13 -29 0 -21 6 3 10 4 10 1 0 -17 -20 -12 -34 9 -16 24
-16 25 9 23 16 -2 21 -6 15 -12z m-1006 -51 c-5 -11 -9 -11 -19 -2 -17 16 -8
42 11 27 7 -7 10 -18 8 -25z m1076 -13 c-8 -3 -20 -9 -27 -14 -8 -6 -10 -4 -6
10 3 14 11 18 26 14 15 -4 17 -7 7 -10z m-1020 -16 c0 -2 -7 -6 -15 -10 -8 -3
-15 -1 -15 4 0 6 7 10 15 10 8 0 15 -2 15 -4z m5004 -61 c-4 -8 -10 -13 -15
-10 -4 3 -6 12 -3 20 4 8 10 13 15 10 4 -3 6 -12 3 -20z m-5164 -9 c0 -3 -11
-17 -25 -32 -14 -15 -25 -22 -25 -15 0 12 31 49 43 50 4 1 7 -1 7 -3z m70 -11
c0 -8 -4 -15 -10 -15 -5 0 -7 7 -4 15 4 8 8 15 10 15 2 0 4 -7 4 -15z m640 0
c0 -8 -2 -15 -4 -15 -2 0 -6 7 -10 15 -3 8 -1 15 4 15 6 0 10 -7 10 -15z m17
-7 c-3 -8 -6 -5 -6 6 -1 11 2 17 5 13 3 -3 4 -12 1 -19z m-37 -20 c0 -5 4 -6
10 -3 5 3 7 0 4 -9 -7 -18 -25 -12 -41 13 -10 16 -9 18 8 14 10 -3 19 -10 19
-15z m1925 -55 c97 -122 161 -233 136 -233 -6 0 -11 -7 -11 -15 0 -8 -5 -15
-12 -15 -7 0 -27 -15 -46 -32 l-33 -33 8 30 c15 56 9 128 -15 177 -23 46 -95
128 -113 128 -13 0 -11 24 3 38 21 21 37 13 83 -45z m-2522 29 c-3 -7 -12 -11
-20 -8 -8 3 -17 6 -19 6 -3 0 -3 4 0 8 8 14 44 9 39 -6z m-115 -2 c-2 -5 2
-10 7 -11 16 -1 35 -21 29 -30 -10 -16 -36 -9 -41 11 -3 12 -14 20 -27 21 -19
1 -19 2 4 9 14 4 26 8 28 9 1 1 1 -3 0 -9z m-53 -19 c3 -5 1 -12 -5 -16 -5 -3
-10 1 -10 9 0 18 6 21 15 7z m148 -3 c3 -10 11 -10 35 -1 l32 11 -22 -28 c-13
-15 -27 -27 -32 -26 -5 0 -11 -18 -14 -42 -2 -23 0 -42 5 -41 26 4 34 -1 21
-15 -11 -11 -15 -11 -24 3 -21 29 -33 89 -21 95 9 3 9 7 1 13 -6 4 -13 16 -17
26 -5 12 -1 17 12 17 11 0 21 -6 24 -12z m-116 -20 c2 -18 0 -20 -7 -8 -12 18
-13 30 -2 30 4 0 9 -10 9 -22z m59 -24 c-17 -16 -21 -29 -8 -20 4 2 14 1 22
-5 11 -6 8 -9 -12 -9 -43 0 -37 45 5 49 5 1 1 -6 -7 -15z m107 1 c-3 -9 -8
-14 -10 -11 -3 3 -2 9 2 15 9 16 15 13 8 -4z m-196 -17 c-3 -8 -6 -5 -6 6 -1
11 2 17 5 13 3 -3 4 -12 1 -19z m5043 18 c0 -2 -7 -6 -15 -10 -8 -3 -15 -1
-15 4 0 6 7 10 15 10 8 0 15 -2 15 -4z m-4999 -33 c1 -10 1 -22 0 -26 -1 -5 9
-5 21 -2 13 4 25 7 28 7 22 0 29 -4 24 -17 -4 -9 -14 -14 -23 -13 -9 2 -15 -3
-13 -9 4 -23 -26 -14 -32 10 -5 18 -8 20 -16 7 -5 -8 -10 -10 -10 -4 0 5 5 15
12 22 9 9 9 12 0 12 -7 0 -12 7 -12 15 0 21 20 19 21 -2z m151 -20 c-6 -2 -9
-10 -6 -15 4 -7 2 -8 -4 -4 -18 11 -14 26 6 25 10 0 12 -3 4 -6z m2313 -69
c42 -54 72 -107 81 -146 17 -75 5 -115 -86 -297 -48 -97 -96 -194 -106 -216
-10 -22 -35 -65 -56 -95 -30 -44 -41 -70 -48 -123 -18 -125 -64 -185 -158
-205 -77 -18 -150 15 -181 81 -25 52 -60 85 -99 92 -20 4 -48 9 -62 12 -85 15
-175 63 -209 112 -19 27 -19 40 -6 167 12 114 3 139 -75 214 -37 36 -71 76
-76 90 -12 39 -13 104 0 112 6 4 11 11 11 15 2 20 17 53 26 53 5 0 9 6 9 13 0
31 44 42 173 44 70 1 131 5 136 7 38 24 207 59 536 114 126 21 141 17 190 -44z
m-2395 -4 c0 -10 -4 -21 -9 -24 -10 -7 -20 23 -14 42 6 17 23 4 23 -18z m5170
15 c0 -8 -4 -15 -10 -15 -5 0 -7 7 -4 15 4 8 8 15 10 15 2 0 4 -7 4 -15z
m-5228 -12 c-6 -3 -10 -9 -6 -14 8 -14 -12 -11 -24 4 -8 9 -4 12 16 13 15 1
21 -1 14 -3z m3254 -250 c41 -51 79 -93 85 -93 5 0 8 -4 5 -8 -3 -5 19 -38 47
-73 56 -68 138 -181 119 -164 -10 9 -68 80 -227 275 -29 36 -96 115 -149 175
-53 61 -96 115 -95 120 0 14 126 -122 215 -232z m-3256 206 c0 -5 -4 -7 -10
-4 -5 3 -10 1 -10 -6 0 -7 -3 -10 -6 -6 -8 7 4 27 17 27 5 0 9 -5 9 -11z
m5020 -43 c0 -3 -4 -8 -10 -11 -5 -3 -10 -1 -10 4 0 6 5 11 10 11 6 0 10 -2
10 -4z m0 -41 c0 -8 -4 -15 -10 -15 -5 0 -7 7 -4 15 4 8 8 15 10 15 2 0 4 -7
4 -15z m-5040 -31 c0 -21 -17 -17 -23 5 -3 14 -1 18 9 14 8 -3 14 -11 14 -19z
m4980 -14 c0 -5 -2 -10 -4 -10 -3 0 -8 5 -11 10 -3 6 -1 10 4 10 6 0 11 -4 11
-10z m-100 -9 c0 -12 -20 -25 -27 -18 -7 7 6 27 18 27 5 0 9 -4 9 -9z m-3890
-17 c30 -3 69 -10 85 -15 30 -9 97 -17 148 -18 16 -1 27 -7 27 -15 0 -16 -27
-29 -42 -20 -5 3 -8 0 -6 -8 2 -7 -11 -31 -29 -53 -25 -30 -31 -33 -26 -15 l6
23 -21 -21 c-12 -12 -32 -22 -45 -22 -12 0 -46 -9 -75 -19 -41 -15 -51 -16
-42 -5 7 8 18 14 25 14 7 0 15 7 19 15 3 8 12 15 21 15 8 0 15 4 15 8 0 5 -15
7 -32 5 -18 -2 -27 0 -20 3 23 11 12 21 -19 18 -43 -5 -62 9 -24 17 l30 7 -35
2 -35 2 32 9 c18 5 37 17 42 27 8 16 5 18 -26 19 -20 1 -55 -7 -79 -17 -24
-11 -46 -15 -48 -11 -8 12 4 21 27 21 16 0 17 3 7 15 -11 13 -8 15 16 16 l29
1 -30 9 c-26 7 -24 8 10 3 22 -3 65 -7 95 -10z m-74 -59 c-11 -8 -25 -15 -30
-15 -6 0 -2 7 8 15 11 8 25 15 30 15 6 0 2 -7 -8 -15z m32 -64 c11 -7 11 -9
-1 -14 -9 -3 -18 1 -21 9 -6 16 2 18 22 5z m139 -65 c-5 -14 -57 -21 -57 -7 0
9 20 17 48 17 7 1 11 -4 9 -10z m-142 -16 c-3 -5 -12 -10 -18 -10 -7 0 -6 4 3
10 19 12 23 12 15 0z m83 -6 c12 -4 22 -9 22 -13 0 -8 -65 -41 -79 -41 -13 0
-8 25 8 44 15 18 17 18 49 10z m-128 -38 c0 -2 -8 -10 -17 -17 -16 -13 -17
-12 -4 4 13 16 21 21 21 13z m32 -36 c-23 -22 -32 -25 -32 -12 0 5 10 14 23
20 32 15 33 14 9 -8z m-32 -37 c0 -5 -5 -15 -10 -23 -8 -12 -10 -11 -10 8 0
12 5 22 10 22 6 0 10 -3 10 -7z m150 -107 c0 -6 -8 -16 -18 -22 -16 -11 -18
-9 -14 16 3 19 9 27 18 23 8 -3 14 -10 14 -17z m70 10 c0 -2 -9 -6 -20 -9 -11
-3 -18 -1 -14 4 5 9 34 13 34 5z m-110 -16 c0 -5 -5 -10 -11 -10 -5 0 -7 5 -4
10 3 6 8 10 11 10 2 0 4 -4 4 -10z m-13 -42 c-3 -8 -6 -5 -6 6 -1 11 2 17 5
13 3 -3 4 -12 1 -19z m73 -31 c0 -2 -10 -12 -22 -23 l-23 -19 19 23 c18 21 26
27 26 19z m245 -327 c3 -5 1 -10 -4 -10 -6 0 -11 5 -11 10 0 6 2 10 4 10 3 0
8 -4 11 -10z m626 -201 c-5 -14 -7 -40 -5 -58 2 -20 -2 -38 -12 -48 -20 -20
-10 -30 13 -12 17 13 17 13 3 -6 -8 -11 -22 -26 -30 -33 -8 -8 -9 -11 -2 -7
19 10 15 -32 -5 -43 -12 -7 -21 -5 -32 6 -12 11 -13 16 -3 20 15 5 16 42 1 42
-5 0 -7 -5 -3 -12 4 -7 3 -8 -4 -4 -6 4 -8 14 -5 23 5 13 2 15 -16 10 -17 -4
-21 -2 -17 9 3 8 1 14 -4 14 -6 0 -10 -5 -10 -11 0 -6 -9 -8 -20 -4 -13 4 -20
2 -20 -7 0 -9 -2 -10 -8 -1 -4 6 -23 13 -42 16 -22 2 -13 4 22 4 34 0 65 6 74
14 20 16 20 16 44 -11 l18 -21 26 26 c28 28 23 35 -6 8 -10 -9 -18 -11 -18 -5
0 6 12 20 28 32 l27 21 -25 -7 c-14 -4 -30 -13 -36 -22 -8 -11 -10 -7 -8 18 2
36 -1 32 44 58 40 25 44 23 31 -9z m503 -25 c3 -8 2 -12 -4 -9 -6 3 -10 10
-10 16 0 14 7 11 14 -7z m187 -41 c13 -16 12 -17 -3 -4 -10 7 -18 15 -18 17 0
8 8 3 21 -13z m-847 -13 c-10 -4 -28 -4 -39 -2 -18 5 -18 6 5 12 32 9 62 -1
34 -10z m-184 -20 c0 -5 -5 -10 -11 -10 -5 0 -7 5 -4 10 3 6 8 10 11 10 2 0 4
-4 4 -10z m-1835 -30 c3 -5 1 -10 -4 -10 -6 0 -11 5 -11 10 0 6 2 10 4 10 3 0
8 -4 11 -10z m2595 -14 c0 -3 -4 -8 -10 -11 -5 -3 -10 -1 -10 4 0 6 5 11 10
11 6 0 10 -2 10 -4z m527 -194 c40 -34 87 -69 105 -78 18 -10 28 -19 21 -21
-30 -10 -183 120 -285 241 l-51 61 69 -71 c38 -39 102 -98 141 -132z m-1049
156 c7 -7 12 -17 12 -22 0 -6 -4 -5 -9 3 -6 9 -16 11 -27 7 -11 -4 -20 -6 -20
-4 -1 2 -10 -4 -20 -13 -29 -25 -65 -34 -75 -18 -13 21 -11 33 5 20 15 -13 76
4 76 21 0 6 7 8 15 4 8 -3 15 -1 15 4 0 14 14 12 28 -2z m77 -57 c-3 -6 -11
-11 -17 -11 -6 0 -6 6 2 15 14 17 26 13 15 -4z m-156 -14 c-9 -7 -14 -18 -11
-26 3 -10 0 -12 -11 -8 -9 3 -17 1 -19 -4 -2 -5 -12 -3 -23 5 -20 15 -20 15 0
16 11 0 29 7 39 15 11 8 25 15 30 15 6 0 4 -6 -5 -13z m166 -37 c3 -5 -1 -10
-10 -10 -9 0 -13 5 -10 10 3 6 8 10 10 10 2 0 7 -4 10 -10z m175 -464 c0 -3
-4 -8 -10 -11 -5 -3 -10 -1 -10 4 0 6 5 11 10 11 6 0 10 -2 10 -4z m-2481 -80
c9 -11 8 -15 -6 -20 -10 -4 -14 -4 -10 0 4 4 2 13 -4 21 -7 8 -8 13 -1 13 5 0
15 -6 21 -14z m66 -54 c-5 -7 -34 11 -39 24 -3 9 -1 12 4 9 6 -3 10 0 10 7 0
7 6 2 13 -12 8 -14 13 -26 12 -28z m9 32 c3 -8 2 -12 -4 -9 -6 3 -10 10 -10
16 0 14 7 11 14 -7z m-136 -28 c-7 -7 -19 -11 -27 -8 -11 4 -10 7 5 13 29 12
36 10 22 -5z m172 -28 c0 -9 4 -8 11 2 9 13 10 12 5 -2 -3 -10 0 -18 6 -18 6
0 9 -3 6 -6 -7 -7 -48 18 -48 28 0 5 5 8 10 8 6 0 10 -6 10 -12z m-175 -8 c3
-5 1 -10 -4 -10 -6 0 -11 5 -11 10 0 6 2 10 4 10 3 0 8 -4 11 -10z m-85 -40
c0 -5 -5 -10 -11 -10 -5 0 -7 5 -4 10 3 6 8 10 11 10 2 0 4 -4 4 -10z m40 -10
c0 -5 -4 -10 -10 -10 -5 0 -10 5 -10 10 0 6 5 10 10 10 6 0 10 -4 10 -10z
m335 0 c3 -6 -1 -7 -9 -4 -18 7 -21 14 -7 14 6 0 13 -4 16 -10z m89 -5 c3 -8
1 -15 -4 -15 -6 0 -10 7 -10 15 0 8 2 15 4 15 2 0 6 -7 10 -15z m-454 -16 c0
-11 -27 -12 -34 -1 -2 4 4 9 15 9 10 1 19 -2 19 -8z m446 -24 c17 -16 12 -18
-23 -9 -13 4 -23 10 -23 15 0 14 30 10 46 -6z m614 -199 c0 -2 -7 -7 -16 -10
-8 -3 -12 -2 -9 4 6 10 25 14 25 6z m-1398 -41 c-8 -16 -9 -16 -15 -1 -4 10
-3 15 3 11 6 -3 10 -1 10 6 0 7 3 10 6 6 3 -3 2 -13 -4 -22z m768 -134 c0 -5
-7 -11 -14 -14 -10 -4 -13 -1 -9 9 6 15 23 19 23 5z m60 -17 c0 -8 -4 -12 -10
-9 -5 3 -10 10 -10 16 0 5 5 9 10 9 6 0 10 -7 10 -16z m-845 -84 c-3 -5 -12
-10 -18 -10 -7 0 -6 4 3 10 19 12 23 12 15 0z m145 -10 c-8 -5 -17 -7 -19 -4
-3 3 1 9 9 14 8 5 17 7 19 4 3 -3 -1 -9 -9 -14z m85 10 c19 -8 19 -9 -2 -9
-13 -1 -23 -6 -23 -12 0 -5 -4 -8 -10 -4 -10 6 -3 36 9 34 3 0 15 -4 26 -9z
m-150 -48 c-3 -3 -11 0 -18 7 -9 10 -8 11 6 5 10 -3 15 -9 12 -12z"/>
<path d="M8940 8870 c0 -5 5 -10 11 -10 5 0 7 5 4 10 -3 6 -8 10 -11 10 -2 0
-4 -4 -4 -10z"/>
<path d="M8800 8680 c0 -5 5 -10 11 -10 5 0 7 5 4 10 -3 6 -8 10 -11 10 -2 0
-4 -4 -4 -10z"/>
<path d="M10910 8512 c0 -13 -4 -20 -10 -17 -6 3 -7 -1 -4 -10 6 -15 8 -15 21
-2 12 11 13 19 4 33 -10 18 -10 17 -11 -4z"/>
<path d="M10916 8468 c-10 -12 -14 -23 -9 -27 5 -3 15 -15 21 -26 9 -17 10
-14 5 18 -4 24 -2 37 6 37 6 0 11 5 11 10 0 15 -13 11 -34 -12z"/>
<path d="M9066 8417 c2 -7 13 -18 23 -24 14 -9 18 -8 18 2 0 7 -11 18 -23 24
-17 8 -22 7 -18 -2z"/>
<path d="M9731 7324 c0 -11 3 -14 6 -6 3 7 2 16 -1 19 -3 4 -6 -2 -5 -13z"/>
<path d="M9837 7045 c3 -8 9 -12 14 -9 12 7 11 11 -5 17 -10 4 -13 1 -9 -8z"/>
<path d="M11860 6929 c0 -5 5 -7 10 -4 6 3 10 8 10 11 0 2 -4 4 -10 4 -5 0
-10 -5 -10 -11z"/>
<path d="M10781 6224 c0 -11 3 -14 6 -6 3 7 2 16 -1 19 -3 4 -6 -2 -5 -13z"/>
<path d="M9100 8206 c0 -2 8 -10 18 -17 15 -13 16 -12 3 4 -13 16 -21 21 -21
13z"/>
<path d="M7876 7371 c-4 -5 -2 -12 3 -15 5 -4 12 -2 15 3 4 5 2 12 -3 15 -5 4
-12 2 -15 -3z"/>
<path d="M7839 7271 c8 -5 11 -16 8 -25 -6 -15 -4 -14 17 1 25 19 18 33 -19
33 -15 0 -17 -2 -6 -9z"/>
<path d="M7780 7243 c0 -14 2 -15 9 -4 5 8 14 10 21 6 9 -5 11 -4 6 3 -11 18
-36 14 -36 -5z"/>
<path d="M7680 7218 c0 -5 -4 -7 -8 -4 -5 3 -9 -1 -9 -9 0 -8 4 -15 9 -15 4 0
8 5 8 10 0 17 18 11 22 -7 3 -15 5 -14 10 4 4 15 1 23 -13 26 -11 3 -19 1 -19
-5z"/>
<path d="M7977 7203 c-4 -3 -7 -11 -7 -17 0 -6 5 -5 12 2 6 6 9 14 7 17 -3 3
-9 2 -12 -2z"/>
<path d="M7919 7188 c-5 -21 -7 -50 -3 -40 3 6 12 12 21 12 17 0 13 22 -5 28
-7 2 -12 2 -13 0z"/>
<path d="M8060 7179 c0 -5 5 -7 10 -4 6 3 10 8 10 11 0 2 -4 4 -10 4 -5 0 -10
-5 -10 -11z"/>
<path d="M7780 7151 c-13 -26 -13 -31 4 -31 8 0 14 10 14 25 0 30 -4 31 -18 6z"/>
<path d="M8075 7120 c-3 -5 -1 -10 4 -10 6 0 11 5 11 10 0 6 -2 10 -4 10 -3 0
-8 -4 -11 -10z"/>
<path d="M7800 7101 c0 -5 5 -13 10 -16 6 -3 10 -2 10 4 0 5 -4 13 -10 16 -5
3 -10 2 -10 -4z"/>
<path d="M7950 7099 c0 -5 5 -7 10 -4 6 3 10 8 10 11 0 2 -4 4 -10 4 -5 0 -10
-5 -10 -11z"/>
<path d="M8057 7083 c4 -9 10 -10 24 -2 24 13 24 14 -5 14 -14 0 -22 -5 -19
-12z"/>
<path d="M8125 7090 c3 -5 8 -10 11 -10 2 0 4 5 4 10 0 6 -5 10 -11 10 -5 0
-7 -4 -4 -10z"/>
<path d="M8015 7070 c-3 -6 1 -7 9 -4 18 7 21 14 7 14 -6 0 -13 -4 -16 -10z"/>
<path d="M7007 7232 c-10 -10 -17 -26 -17 -36 0 -10 -5 -15 -12 -11 -7 4 -4
-1 6 -9 25 -20 42 -21 26 -1 -15 18 -6 45 15 45 8 0 15 7 15 15 0 20 -13 19
-33 -3z"/>
<path d="M7027 7190 c3 -11 9 -20 13 -20 5 0 6 9 3 20 -3 11 -9 20 -13 20 -5
0 -6 -9 -3 -20z"/>
<path d="M8117 6572 c-10 -10 -17 -22 -17 -27 0 -4 9 2 20 15 11 13 20 25 20
27 0 7 -8 2 -23 -15z"/>
<path d="M8828 5583 c7 -3 16 -2 19 1 4 3 -2 6 -13 5 -11 0 -14 -3 -6 -6z"/>
<path d="M11358 9433 c7 -3 16 -2 19 1 4 3 -2 6 -13 5 -11 0 -14 -3 -6 -6z"/>
<path d="M11910 8896 c0 -8 -9 -18 -21 -21 -11 -4 -18 -9 -16 -12 11 -10 45 8
50 27 3 11 1 20 -4 20 -5 0 -9 -6 -9 -14z"/>
<path d="M12012 8830 c7 -11 19 -22 28 -25 8 -4 4 5 -9 19 -29 31 -36 33 -19
6z"/>
<path d="M12080 8729 c0 -5 5 -7 10 -4 6 3 10 8 10 11 0 2 -4 4 -10 4 -5 0
-10 -5 -10 -11z"/>
<path d="M7652 8281 c-12 -17 -18 -32 -13 -35 11 -7 51 31 51 49 0 23 -14 18
-38 -14z"/>
<path d="M12315 7880 c-3 -5 -1 -10 4 -10 6 0 11 5 11 10 0 6 -2 10 -4 10 -3
0 -8 -4 -11 -10z"/>
<path d="M7265 7650 c-3 -5 -1 -10 4 -10 6 0 11 5 11 10 0 6 -2 10 -4 10 -3 0
-8 -4 -11 -10z"/>
<path d="M7240 7620 c0 -5 5 -10 11 -10 5 0 7 5 4 10 -3 6 -8 10 -11 10 -2 0
-4 -4 -4 -10z"/>
<path d="M6413 7403 c-30 -45 -29 -50 10 -56 42 -6 47 0 20 23 -28 22 -28 24
-3 48 12 11 15 19 8 19 -7 0 -23 -16 -35 -34z"/>
<path d="M6475 7360 c-3 -5 -1 -10 4 -10 6 0 11 5 11 10 0 6 -2 10 -4 10 -3 0
-8 -4 -11 -10z"/>
<path d="M407 6603 c-4 -7 -5 -23 -2 -36 4 -13 8 -32 10 -43 2 -10 4 -20 5
-21 2 -2 3 -6 4 -10 14 -60 98 -294 138 -383 52 -114 59 -130 58 -135 0 -3 6
-18 13 -33 13 -27 23 -65 51 -212 17 -84 22 -120 37 -265 5 -55 12 -116 14
-135 2 -19 7 -62 10 -95 8 -70 48 -171 151 -378 41 -82 83 -183 94 -225 29
-109 28 -106 45 -92 8 6 20 10 27 7 8 -4 5 -8 -9 -12 -13 -4 -23 -15 -23 -25
0 -10 18 -70 40 -134 22 -64 40 -123 40 -131 0 -18 21 -20 39 -2 8 6 6 -2 -4
-19 -17 -31 -17 -35 4 -125 12 -52 32 -116 46 -144 13 -27 25 -55 25 -61 0 -6
8 -19 19 -28 18 -16 19 -15 25 51 3 37 6 73 6 78 5 71 -12 256 -27 295 -4 8
-5 21 -4 28 3 16 -21 72 -31 72 -3 0 -4 9 -1 20 3 11 0 20 -6 20 -6 0 -11 11
-11 24 0 14 -4 28 -10 31 -5 3 -10 17 -10 31 0 13 -5 24 -12 24 -6 0 -9 3 -5
6 3 4 -3 24 -14 46 -11 21 -17 43 -14 48 3 6 3 10 -2 10 -9 0 -32 47 -38 80
-2 12 -8 27 -14 34 -5 6 -9 23 -10 39 -3 56 -4 62 -13 74 -5 7 -7 25 -3 42 5
22 2 32 -12 40 -10 6 -12 11 -6 11 19 0 -6 50 -26 51 -9 0 -11 3 -4 5 8 4 8
12 -2 31 -8 15 -12 30 -9 35 3 4 1 8 -4 8 -5 0 -15 19 -22 43 -8 23 -19 49
-27 58 -7 8 -14 28 -15 42 -1 15 -6 27 -11 27 -5 0 -7 6 -4 14 3 8 0 17 -8 19
-7 3 -16 19 -20 36 -4 19 -13 31 -23 32 -9 0 -12 3 -6 5 7 3 10 14 7 24 -3 11
-10 17 -17 14 -6 -3 -3 1 7 9 14 12 15 16 4 26 -8 6 -18 7 -22 3 -5 -4 -5 -1
-1 6 4 6 2 12 -4 12 -7 0 -10 6 -7 13 3 8 -3 33 -14 57 -22 50 -23 53 -6 45 6
-4 3 1 -7 9 -11 9 -14 16 -8 16 7 0 12 5 12 11 0 5 -4 7 -10 4 -5 -3 -10 -1
-10 5 0 6 -4 9 -8 6 -4 -2 -9 5 -9 16 -1 12 -8 25 -15 29 -10 7 -10 9 2 9 13
0 13 1 0 10 -8 5 -10 10 -4 10 7 0 15 7 18 16 5 14 4 15 -8 5 -13 -11 -14 -7
-10 26 3 27 1 34 -6 23 -5 -8 -10 -10 -10 -5 0 6 6 17 13 24 9 11 9 14 0 18
-10 3 -9 9 3 20 14 14 13 17 -5 35 -19 17 -26 37 -22 61 1 5 -3 5 -9 2 -7 -4
-10 0 -8 11 2 10 -3 19 -10 19 -7 0 -21 14 -30 30 -9 17 -20 32 -23 35 -24 18
-124 249 -153 350 -41 144 -55 197 -58 215 -2 14 -6 16 -11 8z m764 -2336 c-8
-8 -11 -7 -11 4 0 20 13 34 18 19 3 -7 -1 -17 -7 -23z"/>
<path d="M7141 6527 c-6 -8 -8 -17 -4 -20 7 -8 33 11 33 24 0 13 -16 11 -29
-4z"/>
<path d="M1937 6482 c-24 -61 -30 -115 -31 -287 -1 -107 3 -173 12 -200 7 -22
11 -48 8 -57 -2 -10 0 -21 5 -24 5 -3 8 -17 7 -32 -1 -15 4 -37 10 -48 6 -12
9 -23 7 -25 -2 -3 -6 -16 -9 -29 -23 -120 -37 -165 -95 -290 -20 -44 -53 -93
-90 -136 -10 -12 -24 -44 -30 -72 -12 -47 -10 -62 42 -274 31 -122 66 -283 80
-357 14 -74 31 -137 38 -141 6 -5 27 -8 46 -8 19 0 40 -5 46 -11 6 -6 24 -11
40 -11 16 0 26 -4 22 -10 -3 -5 -1 -10 4 -10 14 0 14 85 1 111 -7 12 -7 19 -1
19 19 0 22 41 6 73 -30 58 -39 255 -12 285 8 9 17 33 18 52 4 37 14 52 42 63
20 7 22 28 5 45 -9 9 -9 12 0 12 6 0 11 11 10 24 -1 14 -5 23 -9 20 -10 -6
-19 41 -19 96 -1 69 -2 80 -14 80 -6 0 -4 5 4 10 13 8 13 10 -2 10 -12 0 -15
6 -12 24 2 14 -1 26 -10 29 -13 5 -30 60 -27 85 1 6 -2 12 -6 12 -4 0 -9 24
-9 53 -2 65 -22 283 -28 317 -3 14 -15 59 -27 100 -29 102 -35 271 -16 420 9
63 14 116 13 118 -2 1 -10 -15 -19 -36z"/>
<path d="M5710 6261 c0 -5 5 -13 10 -16 6 -3 10 -2 10 4 0 5 -4 13 -10 16 -5
3 -10 2 -10 -4z"/>
<path d="M7926 5891 c-4 -5 3 -7 14 -4 23 6 26 13 6 13 -8 0 -17 -4 -20 -9z"/>
<path d="M7320 5841 c0 -11 4 -22 8 -25 4 -2 8 6 8 20 0 13 -4 24 -8 24 -4 0
-8 -9 -8 -19z"/>
<path d="M7738 5760 c2 -62 9 -87 39 -147 20 -40 40 -73 44 -73 5 0 9 -6 9
-12 0 -21 132 -101 159 -96 9 1 22 -1 30 -6 9 -6 12 -5 8 1 -4 6 0 14 9 17 8
3 12 2 9 -4 -3 -6 1 -10 10 -10 8 0 23 -4 33 -10 45 -25 115 -51 120 -44 4 4
1 9 -7 12 -7 2 -22 13 -32 23 -15 15 -17 24 -9 39 13 24 8 25 -31 5 -29 -16
-30 -15 -84 35 -50 48 -81 100 -67 114 3 4 -5 5 -19 4 -13 -2 -31 -11 -40 -22
-15 -18 -16 -17 -42 14 -29 34 -34 52 -14 49 35 -4 38 2 17 31 -20 28 -23 29
-35 14 -17 -23 -37 -13 -60 30 -19 34 -19 37 -2 65 19 32 12 44 -28 46 -19 0
-20 -4 -17 -75z"/>
<path d="M7311 5768 c-7 -11 -10 -23 -6 -26 3 -4 10 0 14 7 6 9 18 11 36 7 19
-5 26 -3 23 6 -2 6 -16 15 -30 19 -19 5 -28 2 -37 -13z"/>
<path d="M7280 5755 c0 -8 2 -15 4 -15 2 0 6 7 10 15 3 8 1 15 -4 15 -6 0 -10
-7 -10 -15z"/>
<path d="M7335 5730 c-3 -5 -1 -10 4 -10 6 0 11 5 11 10 0 6 -2 10 -4 10 -3 0
-8 -4 -11 -10z"/>
<path d="M7401 5724 c0 -11 3 -14 6 -6 3 7 2 16 -1 19 -3 4 -6 -2 -5 -13z"/>
<path d="M7353 5700 c-12 -9 -19 -20 -16 -24 4 -3 1 -6 -5 -6 -7 0 -12 4 -12
9 0 5 -9 11 -20 14 -11 3 -17 1 -14 -4 3 -6 1 -16 -5 -23 -9 -10 -8 -15 4 -20
12 -4 14 -10 5 -25 -16 -30 -13 -34 25 -29 19 2 35 0 35 -5 0 -4 4 -6 9 -3 5
3 11 -5 13 -19 4 -17 1 -25 -8 -25 -21 0 -17 -14 7 -25 30 -14 20 -30 -18 -30
-35 0 -40 -4 -22 -22 8 -8 20 -8 34 -3 29 11 39 2 20 -17 -9 -8 -23 -12 -35
-8 -31 10 -24 -12 8 -23 15 -6 22 -11 15 -11 -14 -1 -6 -29 14 -49 7 -8 11
-18 8 -23 -4 -5 5 -9 19 -9 34 0 61 -11 46 -20 -18 -11 0 -41 21 -35 33 11 55
-3 54 -32 0 -19 6 -29 19 -31 13 -3 16 0 11 9 -5 8 -4 10 3 5 17 -10 15 -26
-3 -26 -8 0 -15 -5 -15 -10 0 -7 6 -7 19 0 25 13 51 13 51 0 0 -5 -8 -10 -17
-10 -13 0 -14 -3 -5 -12 16 -16 44 -19 58 -7 8 6 13 5 17 -5 4 -10 1 -13 -9
-9 -7 3 -14 0 -14 -6 0 -6 9 -11 20 -11 11 0 20 5 20 12 0 16 29 -23 30 -40 0
-6 -3 -11 -7 -11 -19 3 -31 -2 -37 -16 -7 -19 -1 -19 18 1 12 12 16 12 16 2 0
-10 2 -11 8 0 11 17 42 5 42 -17 0 -14 2 -14 10 -1 7 11 4 20 -10 32 -11 9
-16 19 -11 22 5 4 12 2 16 -4 4 -6 11 -8 16 -5 5 4 9 1 9 -4 0 -6 5 -11 10
-11 15 0 12 41 -4 54 -17 14 -30 66 -16 66 5 0 10 -6 10 -14 0 -8 5 -18 10
-21 6 -4 10 5 10 19 0 17 -6 26 -16 26 -8 0 -12 5 -9 10 3 6 2 10 -4 10 -5 0
-13 -4 -16 -10 -10 -16 -26 -11 -23 7 2 11 -8 23 -27 32 l-30 15 25 7 c14 4
20 7 14 8 -7 1 -14 10 -17 21 -3 11 -13 20 -22 20 -9 0 -14 4 -11 9 8 12 -37
58 -52 53 -7 -2 -12 5 -12 16 0 21 -25 36 -42 25 -7 -3 -8 -1 -4 5 4 7 3 12
-2 12 -5 0 -12 19 -16 42 -5 31 -9 39 -16 28 -8 -12 -10 -12 -15 2 -4 10 -4
22 0 28 3 5 0 13 -9 16 -8 3 -13 14 -11 25 2 12 -2 19 -11 19 -8 0 -14 6 -13
13 3 25 -1 38 -11 32 -14 -8 -35 7 -35 25 0 8 -9 16 -20 19 -11 2 -22 7 -25
11 -3 5 -15 0 -27 -10z m82 -60 c4 -6 -6 -10 -22 -10 -22 0 -25 2 -13 10 19
12 27 12 35 0z m35 -46 c0 -2 -9 -8 -19 -13 -16 -9 -18 -8 -14 8 3 12 11 17
19 14 8 -3 14 -7 14 -9z m-40 -168 c0 -2 -7 -7 -16 -10 -8 -3 -12 -2 -9 4 6
10 25 14 25 6z m100 -57 c0 -8 6 -7 17 2 14 12 16 12 11 -1 -2 -8 -10 -15 -16
-14 -7 1 -21 2 -33 3 -11 0 -17 6 -14 11 8 14 35 13 35 -1z m30 -38 c0 -6 -4
-13 -10 -16 -5 -3 -10 1 -10 9 0 9 5 16 10 16 6 0 10 -4 10 -9z m98 -26 c-3
-3 -9 2 -12 12 -6 14 -5 15 5 6 7 -7 10 -15 7 -18z m-54 -26 c-3 -6 -12 -8
-19 -5 -14 5 -29 -20 -19 -35 3 -5 0 -9 -5 -9 -15 0 -14 47 0 52 25 8 49 6 43
-3z m111 -59 c-3 -5 -12 -10 -18 -10 -7 0 -6 4 3 10 19 12 23 12 15 0z m25
-31 c0 -5 5 -7 10 -4 6 3 10 -1 10 -9 0 -21 -3 -20 -25 4 -10 11 -13 20 -7 20
7 0 12 -5 12 -11z m-86 -14 c-6 -16 -24 -21 -24 -7 0 11 11 22 21 22 5 0 6 -7
3 -15z"/>
<path d="M7245 5610 c-3 -5 -2 -10 4 -10 5 0 13 5 16 10 3 6 2 10 -4 10 -5 0
-13 -4 -16 -10z"/>
<path d="M5082 5555 c-7 -14 -12 -34 -11 -43 0 -9 7 1 15 22 16 45 13 59 -4
21z"/>
<path d="M7328 5568 c0 -7 -2 -17 -2 -23 -1 -5 -5 -16 -9 -22 -6 -9 -3 -11 7
-7 11 4 16 0 16 -11 0 -9 4 -13 10 -10 6 4 4 16 -6 31 -15 22 -15 24 1 24 9 0
15 5 13 12 -6 17 -28 22 -30 6z"/>
<path d="M9365 5521 c-3 -5 -1 -12 5 -16 5 -3 10 1 10 9 0 18 -6 21 -15 7z"/>
<path d="M5057 5473 c-12 -21 -77 -239 -82 -277 -12 -85 11 -53 35 47 13 56
32 131 42 165 17 56 19 89 5 65z"/>
<path d="M8274 5395 c-18 -14 -18 -14 7 -15 15 0 29 7 33 15 7 19 -14 19 -40
0z"/>
<path d="M3288 5343 c6 -2 18 -2 25 0 6 3 1 5 -13 5 -14 0 -19 -2 -12 -5z"/>
<path d="M7499 5243 c-8 -9 -9 -14 -2 -10 6 4 14 1 16 -5 3 -7 6 -3 6 10 1 26
-2 27 -20 5z"/>
<path d="M2 4961 c-1 -220 0 -246 16 -257 11 -9 13 -13 4 -14 -7 0 -10 -4 -7
-10 3 -5 1 -10 -4 -10 -16 0 -13 -32 5 -58 14 -20 14 -22 0 -22 -13 0 -16 -16
-16 -101 0 -55 3 -98 8 -96 4 3 7 -35 6 -85 -1 -76 2 -93 20 -116 11 -14 15
-23 8 -18 -13 8 -16 -3 -4 -19 12 -17 31 -15 37 4 4 13 12 17 25 14 11 -3 17
-10 14 -15 -4 -6 2 -5 14 1 27 14 39 14 24 -1 -15 -15 -16 -52 -2 -43 6 4 8
10 5 14 -2 5 7 6 20 3 17 -3 25 -11 25 -26 0 -17 2 -18 9 -6 6 8 7 18 4 23 -3
5 0 13 8 17 10 7 10 12 -1 27 -14 17 -13 17 7 -1 13 -11 31 -16 43 -13 22 6
25 -1 9 -23 -8 -11 -12 -12 -16 -2 -10 26 -30 12 -25 -19 3 -21 1 -30 -6 -25
-6 3 -17 -2 -24 -12 -15 -21 -39 -37 -37 -25 4 20 -2 33 -15 33 -11 0 -13 -14
-11 -62 3 -54 13 -80 63 -178 143 -278 168 -327 179 -355 18 -43 143 -169 143
-144 0 7 3 9 6 6 4 -4 1 -13 -5 -21 -8 -10 -9 -16 -1 -21 5 -3 10 -1 10 5 0 6
3 9 8 6 4 -2 7 44 7 104 0 79 -4 112 -15 126 -13 16 -13 17 1 12 14 -6 15 -2
3 33 -8 21 -15 54 -16 72 -2 17 -6 35 -11 38 -4 3 -9 15 -12 27 -2 12 -7 27
-11 34 -4 7 -3 8 4 4 7 -4 12 -2 12 3 0 6 -5 11 -11 11 -5 0 -8 4 -5 8 3 5 -4
23 -15 41 -11 18 -17 36 -14 42 4 5 1 9 -5 9 -6 0 -9 4 -5 9 3 5 1 12 -5 16
-6 4 -7 11 -4 17 4 7 2 8 -4 4 -7 -4 -13 -2 -13 3 -2 12 -5 26 -9 39 -1 4 -2
10 -1 15 0 4 -4 7 -9 7 -6 0 -10 11 -10 24 0 13 -7 29 -15 36 -13 11 -13 15
-3 21 10 7 10 9 -1 9 -7 0 -11 6 -8 14 3 8 3 17 -1 21 -4 4 -7 10 -8 13 0 4
-6 20 -12 35 -13 31 -7 52 10 41 7 -4 8 -2 4 4 -4 7 -14 12 -21 12 -8 0 -12 6
-9 14 3 8 0 17 -5 21 -6 3 -9 11 -6 16 4 5 1 9 -5 9 -6 0 -8 5 -5 10 3 6 1 10
-5 10 -6 0 -9 4 -6 9 3 5 -1 14 -9 21 -7 6 -12 17 -9 24 3 8 -1 20 -8 27 -19
20 -36 66 -44 121 -3 28 -12 49 -21 52 -8 4 -13 13 -9 21 3 8 -1 18 -8 22 -7
5 -16 25 -19 46 -3 22 -12 46 -19 54 -7 9 -12 24 -10 35 2 10 -1 18 -6 18 -5
0 -8 14 -7 30 1 17 -2 30 -7 30 -5 0 -7 4 -4 9 3 5 0 14 -7 20 -7 5 -12 24
-11 41 1 20 -3 30 -12 30 -7 0 -16 11 -20 25 -3 14 -10 25 -15 25 -5 0 -9 5
-9 11 0 5 5 7 10 4 6 -4 3 12 -6 34 -9 23 -14 48 -10 56 3 8 0 15 -5 15 -7 0
-9 11 -7 25 3 14 1 25 -5 25 -5 0 -7 9 -4 20 3 11 1 18 -3 15 -5 -3 -11 5 -13
17 -2 13 -5 -87 -5 -221z m23 -221 c3 -5 1 -10 -4 -10 -6 0 -11 5 -11 10 0 6
2 10 4 10 3 0 8 -4 11 -10z m22 -116 c-3 -3 -1 -18 4 -33 6 -15 6 -22 1 -16
-17 18 -24 55 -11 55 7 0 10 -3 6 -6z m253 -514 c0 -5 -5 -10 -11 -10 -5 0 -7
5 -4 10 3 6 8 10 11 10 2 0 4 -4 4 -10z"/>
<path d="M10360 5180 c-9 -6 -10 -10 -3 -10 6 0 15 5 18 10 8 12 4 12 -15 0z"/>
<path d="M7835 5150 c-12 -5 -15 -9 -5 -9 11 -1 11 -4 2 -13 -7 -7 -12 -19
-11 -27 0 -11 2 -12 6 -3 2 6 14 12 26 12 15 0 18 3 9 8 -7 5 -10 16 -6 25 7
19 7 19 -21 7z"/>
<path d="M9270 5111 c0 -5 5 -13 10 -16 6 -3 10 -2 10 4 0 5 -4 13 -10 16 -5
3 -10 2 -10 -4z"/>
<path d="M7848 5084 c5 -9 7 -25 5 -35 -9 -31 14 -21 26 11 5 17 12 30 15 30
3 0 3 -8 -1 -17 -6 -19 -5 -18 14 8 11 13 7 15 -28 18 -35 2 -39 0 -31 -15z"/>
<path d="M9315 5090 c3 -5 8 -10 11 -10 2 0 4 5 4 10 0 6 -5 10 -11 10 -5 0
-7 -4 -4 -10z"/>
<path d="M4946 5054 c-16 -11 -17 -16 -6 -29 12 -14 11 -18 -1 -27 -12 -8 -12
-9 1 -6 11 4 34 67 27 75 -1 1 -11 -5 -21 -13z"/>
<path d="M7820 5060 c0 -5 5 -10 10 -10 6 0 10 5 10 10 0 6 -4 10 -10 10 -5 0
-10 -4 -10 -10z"/>
<path d="M7910 5050 c0 -5 5 -10 11 -10 5 0 7 5 4 10 -3 6 -8 10 -11 10 -2 0
-4 -4 -4 -10z"/>
<path d="M7731 5024 c0 -11 3 -14 6 -6 3 7 2 16 -1 19 -3 4 -6 -2 -5 -13z"/>
<path d="M4910 4968 c0 -18 18 -34 28 -24 3 4 -2 14 -11 23 -16 16 -17 16 -17
1z"/>
<path d="M4901 4827 c1 -18 5 -43 9 -57 7 -22 8 -21 7 10 0 19 3 42 7 51 5 11
2 19 -8 22 -13 5 -16 -1 -15 -26z"/>
<path d="M7113 4796 c0 -8 9 -17 20 -20 18 -4 18 -4 1 15 -21 23 -21 23 -21 5z"/>
<path d="M8915 4790 c7 -11 45 -20 45 -10 0 4 -11 10 -25 12 -13 3 -22 2 -20
-2z"/>
<path d="M5150 4765 c0 -8 4 -15 10 -15 5 0 7 7 4 15 -4 8 -8 15 -10 15 -2 0
-4 -7 -4 -15z"/>
<path d="M7140 4756 c0 -2 8 -10 18 -17 15 -13 16 -12 3 4 -13 16 -21 21 -21
13z"/>
<path d="M5153 4676 c0 -28 -6 -70 -11 -93 -8 -34 -7 -43 3 -43 19 0 32 49 25
93 -4 21 -3 40 2 43 12 8 10 41 -4 47 -9 3 -13 -10 -15 -47z"/>
<path d="M4880 4701 c0 -5 7 -11 15 -15 9 -3 15 0 15 9 0 8 -7 15 -15 15 -8 0
-15 -4 -15 -9z"/>
<path d="M9130 4700 c0 -5 5 -10 10 -10 6 0 10 5 10 10 0 6 -4 10 -10 10 -5 0
-10 -4 -10 -10z"/>
<path d="M9045 4670 c-3 -5 1 -10 10 -10 9 0 13 5 10 10 -3 6 -8 10 -10 10 -2
0 -7 -4 -10 -10z"/>
<path d="M6627 4650 c3 -11 12 -20 21 -20 13 0 12 3 -3 20 -10 11 -19 20 -21
20 -1 0 0 -9 3 -20z"/>
<path d="M6504 4626 c23 -18 36 -20 36 -6 0 6 -4 10 -9 10 -5 0 -18 3 -28 6
-16 5 -16 4 1 -10z"/>
<path d="M4870 4572 c0 -5 7 -16 16 -23 14 -12 16 -11 13 5 -4 20 -29 35 -29
18z"/>
<path d="M6910 4530 c0 -5 4 -10 9 -10 5 0 18 -3 28 -7 17 -6 17 -6 1 10 -18
19 -38 22 -38 7z"/>
<path d="M5124 4499 c-1 -16 2 -29 7 -29 5 0 9 5 9 10 0 6 7 10 16 10 8 0 12
-4 9 -10 -3 -5 -1 -10 4 -10 6 0 11 3 11 8 -1 10 -30 48 -30 38 0 -5 -6 -4
-13 2 -9 8 -13 4 -13 -19z"/>
<path d="M7501 4454 c0 -11 3 -14 6 -6 3 7 2 16 -1 19 -3 4 -6 -2 -5 -13z"/>
<path d="M4882 4375 c-1 -19 3 -35 8 -35 6 0 10 16 10 35 0 19 -4 35 -8 35 -5
0 -9 -16 -10 -35z"/>
<path d="M6485 4390 c-3 -5 1 -13 10 -16 22 -9 29 1 11 15 -10 8 -16 9 -21 1z"/>
<path d="M7150 4380 c0 -5 7 -10 15 -10 8 0 15 5 15 10 0 6 -7 10 -15 10 -8 0
-15 -4 -15 -10z"/>
<path d="M8175 4379 c-6 -8 2 -9 26 -4 32 7 33 7 19 -11 -14 -16 -13 -17 4
-11 14 6 17 4 12 -9 -5 -13 -3 -14 7 -6 8 7 18 7 27 2 20 -13 30 -3 21 22 -6
16 -18 22 -58 25 -32 2 -54 0 -58 -8z"/>
<path d="M5200 4364 c0 -8 3 -14 8 -14 9 0 39 19 32 21 -3 0 -13 2 -22 4 -10
2 -18 -3 -18 -11z"/>
<path d="M7231 4376 c12 -10 59 -15 59 -6 0 5 -14 10 -32 10 -17 0 -29 -2 -27
-4z"/>
<path d="M7625 4350 c4 -6 -6 -10 -24 -10 -16 0 -36 -6 -43 -13 -37 -36 -112
-86 -121 -80 -6 3 -7 1 -3 -5 4 -7 4 -12 -1 -12 -14 0 -63 -47 -56 -54 3 -3 0
-6 -7 -6 -23 0 -140 -74 -136 -86 3 -6 -5 -9 -18 -7 -13 3 -28 -2 -35 -11 -8
-9 -20 -16 -27 -16 -8 0 -14 -5 -14 -10 0 -6 -3 -9 -7 -8 -16 5 -100 -44 -100
-58 0 -10 7 -12 21 -8 12 4 17 3 13 -2 -4 -4 3 -14 15 -21 22 -13 22 -14 1 -8
-14 4 -25 0 -30 -10 -12 -21 -43 -9 -43 16 0 22 0 22 -34 9 -14 -5 -26 -17
-26 -26 0 -10 -5 -14 -15 -10 -8 3 -22 3 -30 0 -19 -8 -20 -34 -1 -34 7 0 19
-6 26 -14 6 -8 18 -12 26 -9 8 3 14 0 14 -6 0 -6 17 -11 37 -11 l37 0 -42 39
c-45 42 -50 51 -28 51 8 0 17 6 20 13 3 6 4 4 3 -7 -1 -12 9 -24 30 -35 18 -9
31 -21 29 -27 -3 -8 3 -10 17 -6 20 5 20 4 8 -11 -7 -9 -11 -26 -8 -37 5 -21
-9 -28 -15 -8 -3 9 -9 8 -22 -5 -22 -22 -30 -22 -22 0 4 10 4 14 0 11 -7 -8
-72 23 -117 54 -20 14 -36 18 -55 13 -25 -6 -25 -8 -9 -19 20 -15 23 -46 5
-46 -10 0 -10 -2 0 -9 8 -4 11 -19 8 -34 -3 -15 0 -27 5 -27 6 0 26 -12 44
-26 19 -14 38 -24 42 -21 4 2 17 -4 27 -14 23 -23 20 -23 -32 -5 -23 8 -49 14
-59 14 -10 -1 -34 2 -53 5 -19 4 -29 4 -22 1 18 -8 15 -54 -3 -54 -8 0 -15 5
-15 10 0 6 -5 10 -11 10 -6 0 -29 13 -52 29 -48 33 -87 48 -87 32 0 -6 7 -11
15 -11 18 0 115 -62 115 -73 0 -5 -14 -6 -31 -2 -28 6 -30 6 -18 -13 7 -11 31
-31 53 -46 42 -27 37 -32 -29 -27 l-30 2 30 -25 c68 -56 72 -60 52 -64 -20 -4
-49 16 -42 29 3 4 -3 12 -13 18 -14 7 -21 5 -31 -11 -11 -17 -10 -22 1 -29 9
-6 7 -9 -9 -9 -13 0 -23 -4 -23 -10 0 -5 5 -10 11 -10 5 0 7 -5 4 -11 -5 -6
-11 -4 -19 7 -8 10 -18 14 -26 9 -10 -6 -9 -9 1 -17 9 -5 4 -6 -13 -2 -19 4
-28 2 -28 -6 0 -15 -30 -39 -49 -40 -8 0 -23 8 -34 18 -13 11 -18 12 -16 4 3
-8 18 -21 34 -30 17 -9 32 -20 33 -24 2 -5 15 -8 28 -8 15 0 24 -6 24 -15 0
-20 -6 -19 -62 9 -27 13 -48 19 -48 15 0 -5 5 -9 11 -9 6 0 9 -7 5 -15 -3 -8
0 -16 7 -17 7 0 17 -2 22 -3 6 -2 16 -3 23 -4 7 0 17 -12 22 -26 8 -22 12 -24
24 -13 8 7 10 14 5 16 -5 2 -5 11 1 21 5 10 6 21 3 25 -3 3 -1 6 5 6 7 0 12
-5 12 -11 0 -5 5 -7 11 -4 5 4 18 0 27 -8 9 -7 26 -17 36 -21 20 -7 20 -7 0
16 -10 13 -28 31 -39 42 l-20 19 20 -5 c11 -3 29 -9 39 -14 12 -4 17 -4 13 2
-4 7 6 9 25 6 21 -3 29 -1 24 7 -4 6 -15 11 -24 11 -15 1 -15 2 1 11 10 6 26
8 35 4 9 -3 14 -3 10 0 -3 4 2 15 13 26 23 23 24 39 2 39 -9 0 -14 3 -10 6 3
4 14 3 24 -1 29 -13 95 -16 88 -5 -3 6 -13 10 -21 10 -18 0 -18 15 1 34 19 19
19 24 -2 29 -12 3 -8 5 9 6 15 0 30 -4 34 -11 5 -8 11 -6 20 7 8 11 21 16 34
12 20 -5 27 3 13 17 -12 11 -13 46 -2 46 5 0 7 5 4 10 -8 12 30 13 53 1 9 -4
29 -11 44 -15 24 -6 23 -2 -19 38 -44 43 -44 44 -16 41 15 -1 39 -7 53 -13 19
-7 26 -6 28 4 2 8 12 14 23 14 11 0 17 5 14 10 -4 6 -10 8 -15 5 -5 -3 -13 2
-18 12 -8 13 -5 22 10 35 13 11 16 18 8 18 -7 0 -11 2 -9 4 2 2 23 1 47 -4 31
-5 41 -5 33 3 -18 18 -13 37 10 37 16 0 19 4 14 18 -12 31 -14 53 -4 47 5 -4
7 -11 4 -16 -4 -5 -2 -9 3 -9 6 0 13 7 16 16 4 10 14 14 25 11 15 -4 19 0 16
15 -4 21 -6 20 57 5 7 -2 9 -2 5 1 -5 2 1 11 12 19 18 12 19 16 7 29 -20 19
-32 18 -15 -2 12 -14 11 -16 -5 -13 -11 2 -20 14 -22 25 -3 18 1 21 27 18 18
-2 28 0 24 6 -3 6 -2 10 4 10 5 0 12 -4 15 -9 3 -5 17 -11 31 -13 22 -5 24 -3
13 11 -7 9 -17 19 -23 23 -6 5 -5 8 3 8 7 0 10 5 7 10 -3 6 -2 10 4 10 5 0 13
-4 16 -10 3 -5 11 -10 16 -10 6 0 7 5 3 11 -5 8 -1 8 13 0 20 -10 33 -6 33 11
0 4 -7 8 -16 8 -8 0 -12 5 -9 10 3 6 -1 10 -9 10 -8 0 -18 5 -22 11 -4 7 0 9
12 6 49 -15 94 -19 94 -8 0 6 -6 8 -14 5 -23 -9 -27 12 -6 31 16 14 25 16 43
8 48 -22 54 35 6 64 l-24 14 28 -4 c23 -4 27 -1 22 12 -5 12 -3 13 5 5 12 -12
60 -7 60 7 0 5 10 9 22 9 17 0 19 3 10 12 -20 20 -14 37 11 31 18 -4 19 -3 7
6 -12 9 -11 11 8 11 12 0 22 5 22 10 0 6 -6 10 -13 10 -7 0 -23 9 -35 20 -12
11 -35 20 -52 20 -16 0 -30 5 -30 10 0 6 -5 10 -11 10 -5 0 -7 -4 -4 -10 3 -5
-1 -10 -10 -10 -9 0 -13 5 -10 10 3 6 -1 10 -10 10 -9 0 -13 -4 -10 -10z
m-695 -522 c0 -12 -39 4 -57 24 -18 20 -18 20 19 2 21 -11 38 -22 38 -26z m65
-68 c3 -11 11 -20 16 -20 5 0 9 -4 9 -9 0 -5 -9 -7 -20 -4 -11 3 -18 9 -15 13
3 4 -2 10 -10 14 -19 7 -20 26 -1 26 8 0 18 -9 21 -20z m159 -49 c3 -5 0 -11
-8 -14 -8 -3 -17 1 -20 9 -6 15 19 20 28 5z m-368 -269 c-6 -6 -56 10 -56 18
0 5 13 3 30 -3 16 -6 28 -13 26 -15z"/>
<path d="M7785 4349 c-16 -6 -16 -8 -3 -8 9 -1 23 -4 32 -7 9 -3 16 -2 16 4 0
15 -22 20 -45 11z"/>
<path d="M7854 4345 c25 -19 36 -19 36 0 0 10 -10 15 -27 15 -27 -1 -27 -1 -9
-15z"/>
<path d="M8150 4352 c0 -8 43 -32 55 -32 2 0 2 6 -1 14 -3 8 -12 12 -20 9 -8
-3 -14 0 -14 6 0 6 -4 11 -10 11 -5 0 -10 -4 -10 -8z"/>
<path d="M5220 4316 c0 -2 7 -9 15 -16 12 -10 15 -10 15 4 0 9 -7 16 -15 16
-8 0 -15 -2 -15 -4z"/>
<path d="M6882 4289 c0 -20 4 -29 15 -29 12 0 13 3 4 14 -7 8 -8 16 -2 18 5 1
3 8 -3 14 -10 9 -13 6 -14 -17z"/>
<path d="M8170 4302 c0 -10 -8 -18 -17 -19 -52 -4 -75 -13 -93 -34 -12 -12
-18 -29 -16 -36 4 -8 -3 -11 -22 -9 -15 2 -22 2 -16 -1 13 -5 26 -43 15 -43
-4 0 -12 5 -19 12 -21 21 -14 -7 9 -36 12 -15 17 -26 12 -25 -20 4 -33 -2 -33
-15 0 -9 -10 -12 -37 -9 -37 4 -37 4 -18 -17 25 -27 15 -33 -27 -16 -20 9 -38
12 -41 9 -4 -3 -15 0 -24 8 -17 13 -17 12 0 -7 16 -19 16 -23 3 -36 -12 -13
-11 -17 14 -31 15 -10 36 -17 45 -17 9 0 13 -4 10 -10 -3 -5 -19 -10 -36 -10
-16 0 -29 -4 -29 -10 0 -5 7 -10 15 -10 8 0 15 -4 15 -10 0 -10 -42 -7 -75 6
-18 7 -19 6 -5 -11 14 -17 14 -18 -7 -7 -14 8 -24 9 -28 2 -3 -5 0 -10 8 -10
8 0 20 -6 26 -14 9 -11 6 -12 -15 -8 -18 3 -25 1 -20 -6 3 -6 -3 -12 -16 -14
-13 -2 -23 -10 -24 -18 -2 -30 -4 -32 -19 -20 -9 7 -15 8 -15 2 0 -5 -10 -8
-22 -5 -19 5 -21 3 -10 -8 16 -18 15 -29 -3 -29 -9 0 -18 -7 -21 -15 -4 -8
-13 -15 -21 -15 -8 0 -11 -4 -8 -10 3 -5 -1 -10 -10 -10 -11 0 -15 5 -11 15 3
8 1 15 -3 15 -5 0 -11 -6 -14 -14 -7 -19 3 -56 15 -56 6 0 5 -7 -3 -16 -10
-13 -10 -17 2 -26 11 -8 10 -9 -4 -4 -50 16 -70 19 -63 7 5 -7 -1 -11 -16 -11
-23 -1 -23 -1 -3 -16 17 -13 18 -16 5 -25 -11 -7 -8 -8 12 -3 25 5 28 4 26
-18 -2 -23 -6 -24 -46 -22 -30 1 -40 -1 -31 -7 10 -6 11 -11 3 -16 -6 -5 -13
-16 -17 -25 -4 -11 -12 -15 -21 -12 -10 4 -17 -2 -22 -20 -4 -16 -13 -26 -24
-26 -19 0 -33 -13 -24 -22 9 -9 54 16 54 31 0 7 6 11 13 8 8 -3 20 3 28 14 7
10 19 19 26 19 7 0 13 5 13 10 0 6 10 10 23 11 21 0 21 1 2 8 -14 6 -2 10 45
16 60 7 63 9 38 18 -39 15 -35 28 4 16 50 -14 78 -12 72 6 -4 11 0 15 16 15
19 0 20 2 10 15 -10 12 -10 15 3 15 22 0 71 47 57 55 -15 9 17 38 35 31 8 -3
15 -1 15 3 0 5 -5 11 -12 13 -7 3 -8 10 -4 17 6 9 21 11 46 7 34 -5 38 -4 42
19 3 13 1 28 -5 34 -6 6 -2 9 9 8 14 -2 20 6 22 26 2 15 7 25 12 22 5 -3 11
-1 15 5 4 7 13 6 27 -1 15 -8 19 -8 14 0 -4 6 -3 11 3 11 6 0 8 7 5 15 -4 8
-1 15 5 15 7 0 15 8 18 18 11 29 32 43 63 44 24 1 28 4 19 15 -9 10 -8 13 5
13 10 0 14 5 11 10 -3 6 1 10 10 10 9 0 13 5 10 10 -3 6 -1 10 4 10 18 0 12
18 -6 23 -11 3 -7 5 10 6 16 0 26 5 22 11 -3 6 -1 10 5 10 8 0 8 6 0 20 -9 17
-8 20 11 20 15 0 19 4 15 16 -5 12 -1 14 17 9 l22 -7 -22 21 c-12 11 -29 21
-38 21 -9 0 -14 4 -11 9 3 4 18 6 33 4 27 -4 27 -4 9 11 -19 16 -19 16 1 16
12 0 24 4 27 8 5 9 -8 34 -18 33 -3 -1 -5 2 -4 7 1 4 9 6 18 4 8 -1 4 4 -10
12 -33 20 -40 20 -40 -2z m-320 -402 c0 -5 -4 -10 -10 -10 -5 0 -10 5 -10 10
0 6 5 10 10 10 6 0 10 -4 10 -10z"/>
<path d="M4895 4282 c-13 -9 -13 -21 4 -50 9 -17 10 -27 1 -37 -7 -9 -8 -15 0
-20 16 -10 12 -25 -5 -19 -23 9 -18 -18 9 -48 14 -14 22 -29 19 -32 -4 -3 -1
-6 5 -6 7 0 12 -7 12 -15 0 -8 6 -15 14 -15 12 0 12 6 0 38 -7 20 -13 54 -14
75 0 21 -7 54 -15 74 -9 20 -13 43 -11 50 6 14 -3 17 -19 5z"/>
<path d="M5160 4280 c0 -5 5 -10 10 -10 6 0 10 5 10 10 0 6 -4 10 -10 10 -5 0
-10 -4 -10 -10z"/>
<path d="M5226 4261 c-4 -5 -2 -12 4 -16 6 -4 8 -10 6 -14 -3 -4 -2 -12 2 -18
5 -6 14 -3 27 9 16 16 17 18 2 13 -12 -5 -17 -2 -17 8 0 19 -16 31 -24 18z"/>
<path d="M5265 4200 c3 -5 8 -10 11 -10 2 0 4 5 4 10 0 6 -5 10 -11 10 -5 0
-7 -4 -4 -10z"/>
<path d="M5170 4182 c0 -10 8 -18 19 -19 18 -2 19 0 3 18 -20 23 -22 24 -22 1z"/>
<path d="M5240 4113 c0 -5 7 -16 14 -26 13 -17 14 -16 19 2 3 11 2 22 -1 25
-8 9 -32 7 -32 -1z"/>
<path d="M100 4060 c0 -5 5 -10 10 -10 6 0 10 5 10 10 0 6 -4 10 -10 10 -5 0
-10 -4 -10 -10z"/>
<path d="M4920 4027 c0 -2 14 -16 31 -33 24 -23 29 -25 23 -9 -8 20 -33 44
-46 45 -5 0 -8 -1 -8 -3z"/>
<path d="M8210 4020 c0 -5 5 -10 11 -10 5 0 7 5 4 10 -3 6 -8 10 -11 10 -2 0
-4 -4 -4 -10z"/>
<path d="M7800 3965 c0 -9 6 -12 15 -9 8 4 15 7 15 9 0 2 -7 5 -15 9 -9 3 -15
0 -15 -9z"/>
<path d="M6790 3960 c0 -5 5 -10 10 -10 6 0 10 5 10 10 0 6 -4 10 -10 10 -5 0
-10 -4 -10 -10z"/>
<path d="M5360 3940 c0 -5 5 -10 10 -10 6 0 10 5 10 10 0 6 -4 10 -10 10 -5 0
-10 -4 -10 -10z"/>
<path d="M4977 3911 c3 -12 10 -21 15 -21 13 0 6 32 -9 37 -7 3 -9 -3 -6 -16z"/>
<path d="M5320 3922 c0 -5 7 -9 15 -9 8 0 15 4 15 9 0 4 -7 8 -15 8 -8 0 -15
-4 -15 -8z"/>
<path d="M5385 3900 c20 -22 39 -27 33 -8 -2 6 -15 15 -28 20 -23 9 -23 8 -5
-12z"/>
<path d="M8075 3880 c3 -5 10 -10 16 -10 5 0 9 5 9 10 0 6 -7 10 -16 10 -8 0
-12 -4 -9 -10z"/>
<path d="M4998 3867 c8 -9 11 -20 9 -25 -7 -11 10 -38 18 -30 11 10 -9 61 -26
67 -12 4 -12 2 -1 -12z"/>
<path d="M1255 3830 c3 -5 8 -10 11 -10 2 0 4 5 4 10 0 6 -5 10 -11 10 -5 0
-7 -4 -4 -10z"/>
<path d="M6750 3820 c-14 -4 -19 -8 -12 -9 20 -2 14 -15 -12 -27 -18 -8 -28
-8 -36 0 -8 8 -13 8 -18 -1 -5 -8 -13 -9 -22 -3 -20 13 -33 12 -25 0 3 -5 -2
-10 -12 -10 -16 -1 -16 -2 -2 -10 17 -10 37 -9 57 3 6 5 17 5 22 2 6 -4 17 -1
25 5 8 7 22 10 30 6 9 -3 13 -2 10 4 -8 13 1 13 26 0 11 -6 19 -7 19 -1 0 5
-7 12 -16 15 -9 4 -14 13 -10 21 3 8 4 15 3 14 -1 -1 -13 -5 -27 -9z"/>
<path d="M7900 3809 c0 -5 5 -7 10 -4 6 3 10 8 10 11 0 2 -4 4 -10 4 -5 0 -10
-5 -10 -11z"/>
<path d="M5225 3770 c-3 -6 1 -7 9 -4 18 7 21 14 7 14 -6 0 -13 -4 -16 -10z"/>
<path d="M5585 3750 c-3 -5 1 -10 10 -10 9 0 13 5 10 10 -3 6 -8 10 -10 10 -2
0 -7 -4 -10 -10z"/>
<path d="M7823 3740 c1 -14 4 -16 14 -8 16 13 16 15 -1 21 -10 4 -14 0 -13
-13z"/>
<path d="M6560 3740 c0 -10 -10 -17 -27 -18 -41 -3 -63 -52 -23 -52 11 0 20
-7 20 -15 0 -9 -6 -12 -15 -9 -8 4 -15 1 -15 -5 0 -6 5 -11 11 -11 6 0 17 -7
25 -15 9 -8 20 -15 25 -15 15 0 10 17 -6 24 -8 3 -15 11 -15 17 0 8 5 7 17 -2
11 -10 14 -10 9 -1 -4 7 -1 12 8 12 10 0 13 6 10 15 -7 18 0 19 29 4 12 -6 8
1 -11 16 -18 15 -30 30 -28 34 3 4 1 13 -5 21 -7 13 -9 13 -9 0z m0 -46 c0
-14 -3 -14 -15 -4 -8 7 -15 14 -15 16 0 2 7 4 15 4 8 0 15 -7 15 -16z"/>
<path d="M5058 3733 c7 -3 16 -2 19 1 4 3 -2 6 -13 5 -11 0 -14 -3 -6 -6z"/>
<path d="M5150 3729 c0 -5 5 -7 10 -4 6 3 10 8 10 11 0 2 -4 4 -10 4 -5 0 -10
-5 -10 -11z"/>
<path d="M5622 3728 c-17 -17 -15 -29 3 -22 8 4 15 1 15 -6 0 -6 5 -8 12 -4 8
5 6 11 -5 19 -9 7 -14 15 -10 18 3 4 4 7 2 7 -3 0 -10 -5 -17 -12z"/>
<path d="M6758 3733 c7 -3 16 -2 19 1 4 3 -2 6 -13 5 -11 0 -14 -3 -6 -6z"/>
<path d="M5087 3695 c-4 -9 2 -19 13 -25 16 -8 20 -8 20 3 0 8 -6 20 -14 26
-10 9 -15 8 -19 -4z"/>
<path d="M4950 3694 c0 -14 61 -64 78 -64 10 0 24 -6 31 -12 11 -11 11 -9 1
10 -6 13 -9 26 -6 29 6 6 -23 32 -36 33 -3 0 -4 -9 -1 -20 3 -11 0 -20 -6 -20
-6 0 -11 4 -11 9 0 5 -11 16 -25 25 -14 9 -25 13 -25 10z"/>
<path d="M5636 3659 c9 -11 22 -19 28 -19 6 0 5 4 -3 9 -11 7 -11 9 0 13 8 3
1 7 -14 10 -27 5 -27 5 -11 -13z"/>
<path d="M6450 3666 c0 -2 7 -7 16 -10 8 -3 12 -2 9 4 -6 10 -25 14 -25 6z"/>
<path d="M6605 3640 c3 -5 11 -10 16 -10 6 0 7 5 4 10 -3 6 -11 10 -16 10 -6
0 -7 -4 -4 -10z"/>
<path d="M6405 3630 c3 -5 11 -10 16 -10 6 0 7 5 4 10 -3 6 -11 10 -16 10 -6
0 -7 -4 -4 -10z"/>
<path d="M6670 3629 c0 -5 5 -7 10 -4 6 3 10 8 10 11 0 2 -4 4 -10 4 -5 0 -10
-5 -10 -11z"/>
<path d="M5195 3620 c3 -5 0 -10 -7 -12 -9 -3 -9 -6 0 -12 7 -4 12 -2 12 3 0
6 4 11 10 11 5 0 7 -7 4 -15 -5 -11 -2 -13 12 -8 14 5 16 3 11 -11 -6 -15 -3
-17 14 -13 11 3 18 3 15 0 -3 -4 -1 -12 5 -19 6 -7 7 -19 3 -25 -5 -9 -10 -6
-15 9 -10 28 -29 29 -29 2 0 -11 6 -20 14 -20 8 0 16 -4 18 -10 2 -6 14 -6 33
-1 26 8 27 9 7 10 -22 1 -22 2 -7 17 13 14 21 15 41 5 32 -14 32 -14 36 5 2
12 10 9 36 -14 24 -22 39 -28 60 -24 l27 5 -32 13 c-17 8 -34 18 -37 23 -7 11
55 8 75 -4 12 -7 12 -6 1 7 -7 8 -33 21 -57 28 -25 7 -48 17 -51 21 -3 5 -17
6 -32 3 -21 -4 -24 -3 -12 5 9 6 10 11 3 11 -6 0 -19 3 -29 7 -12 4 -15 3 -10
-6 6 -8 1 -10 -16 -6 -80 18 -107 22 -103 15z"/>
<path d="M6363 3612 c-9 -14 -13 -15 -24 -4 -7 6 -18 12 -23 12 -15 0 42 -48
65 -55 11 -4 19 -11 19 -16 0 -5 6 -9 13 -9 6 1 -1 12 -18 26 -29 25 -29 25
-5 19 32 -9 31 -9 33 -35 1 -12 14 -29 29 -38 16 -9 26 -22 24 -29 -3 -7 -1
-15 3 -18 5 -3 11 2 15 10 3 9 -6 23 -24 37 -19 14 -30 31 -30 46 0 25 0 25
23 6 l22 -19 -19 23 c-11 12 -27 22 -37 22 -10 0 -26 9 -36 20 -17 18 -19 18
-30 2z"/>
<path d="M4963 3613 c-23 -9 -14 -31 17 -42 17 -5 33 -17 36 -25 3 -9 10 -14
14 -11 5 3 12 -1 17 -8 4 -8 15 -17 23 -21 8 -3 0 -4 -18 -1 -18 2 -49 16 -70
31 -20 15 -28 23 -17 20 15 -6 17 -4 8 5 -6 6 -19 9 -29 5 -16 -6 -15 -8 2
-27 18 -20 18 -20 -11 -13 -17 4 -36 11 -42 17 -9 6 -13 6 -13 -2 0 -14 119
-101 140 -101 12 0 13 -2 1 -9 -10 -7 -7 -9 12 -8 33 2 33 4 5 28 l-23 20 23
-11 c17 -8 22 -8 22 2 0 9 2 10 8 2 4 -7 33 -26 65 -44 51 -28 57 -29 48 -12
-15 28 -14 35 3 29 9 -4 17 2 21 13 8 25 -3 43 -22 36 -8 -3 -11 -1 -8 4 4 6
-7 15 -23 21 -23 8 -29 15 -25 30 4 13 9 16 17 10 18 -14 80 -25 72 -12 -4 6
-12 11 -18 11 -6 0 -18 8 -27 18 -9 11 -28 22 -43 26 -29 7 -36 -2 -17 -21 7
-7 3 -12 -15 -15 -14 -3 -23 -1 -20 3 3 5 -7 9 -21 9 -15 0 -36 11 -49 25 -13
14 -25 25 -27 24 -2 0 -10 -3 -16 -6z m31 -120 c6 -14 -3 -16 -28 -7 -9 3 -14
9 -11 13 7 13 34 9 39 -6z m132 -14 c14 -15 15 -20 4 -17 -16 3 -30 18 -30 31
0 11 6 8 26 -14z"/>
<path d="M6146 3586 c8 -20 31 -27 38 -11 2 7 -2 16 -10 19 -25 10 -34 7 -28
-8z"/>
<path d="M6636 3592 c-3 -6 -1 -14 5 -17 14 -9 20 -2 10 14 -6 8 -11 9 -15 3z"/>
<path d="M6080 3579 c0 -5 -4 -8 -8 -5 -4 3 -26 1 -48 -4 -23 -5 -64 -11 -93
-13 -28 -2 -54 -7 -57 -9 -9 -10 99 -70 133 -74 33 -4 46 9 18 20 -8 3 -15 11
-14 18 0 9 2 10 5 1 3 -7 12 -9 20 -6 7 3 12 8 9 13 -2 4 7 13 21 20 21 12 29
11 53 -3 36 -21 47 -22 31 -2 -10 12 -10 15 0 15 9 0 8 5 -3 18 -18 19 -67 28
-67 11z"/>
<path d="M5542 3551 c-10 -6 -10 -10 3 -21 8 -7 18 -10 22 -6 3 3 1 6 -5 6 -6
0 -9 7 -6 15 7 17 4 18 -14 6z"/>
<path d="M5800 3550 c-12 -7 -11 -10 5 -17 26 -10 29 -53 4 -53 -9 0 -19 5
-21 12 -3 7 -12 9 -22 5 -16 -6 -13 -11 20 -35 22 -16 47 -31 56 -34 11 -5 15
-14 11 -27 -4 -17 -9 -19 -25 -10 -14 8 -17 13 -9 18 9 6 7 12 -5 22 -13 11
-18 11 -21 2 -8 -22 -31 -14 -37 11 -3 14 -13 32 -23 41 -15 15 -15 16 2 13
10 -2 20 2 22 9 3 8 -6 10 -30 6 -20 -3 -37 -1 -41 6 -4 6 -2 11 4 11 6 0 8 5
5 10 -5 8 -11 8 -19 1 -7 -6 -16 -8 -19 -5 -3 4 -26 8 -49 10 -24 1 -34 0 -23
-3 11 -3 24 -12 28 -19 5 -8 12 -12 18 -9 5 4 9 1 9 -4 0 -6 13 -11 29 -11 21
0 32 -6 36 -21 4 -11 4 -23 1 -26 -3 -3 19 -20 49 -39 72 -43 123 -68 108 -53
-10 10 -7 17 12 35 14 13 20 26 15 29 -6 4 -4 18 6 36 8 17 14 32 12 33 -2 1
-20 10 -40 20 -21 9 -41 23 -45 31 -6 9 -13 11 -23 5z"/>
<path d="M6540 3550 c0 -5 5 -10 11 -10 5 0 7 5 4 10 -3 6 -8 10 -11 10 -2 0
-4 -4 -4 -10z"/>
<path d="M6685 3540 c-3 -5 -1 -10 4 -10 6 0 11 5 11 10 0 6 -2 10 -4 10 -3 0
-8 -4 -11 -10z"/>
<path d="M5715 3530 c3 -5 8 -10 11 -10 2 0 4 5 4 10 0 6 -5 10 -11 10 -5 0
-7 -4 -4 -10z"/>
<path d="M7048 3533 c7 -3 16 -2 19 1 4 3 -2 6 -13 5 -11 0 -14 -3 -6 -6z"/>
<path d="M6660 3516 c0 -9 30 -14 35 -6 4 6 -3 10 -14 10 -12 0 -21 -2 -21 -4z"/>
<path d="M5588 3502 c-28 -6 -21 -19 24 -52 45 -33 80 -42 58 -15 -7 8 -20 15
-30 15 -23 0 -32 11 -20 25 13 16 -8 33 -32 27z m22 -26 c-7 -7 -13 -7 -20 0
-6 6 -3 10 10 10 13 0 16 -4 10 -10z"/>
<path d="M6566 3490 c12 -5 25 -13 29 -19 3 -6 13 -11 22 -11 11 0 8 6 -10 20
-14 11 -33 20 -44 19 -15 0 -15 -1 3 -9z"/>
<path d="M4881 3474 c-1 -6 9 -19 22 -27 l22 -16 -22 6 c-14 3 -23 1 -23 -6 0
-6 -5 -10 -12 -8 -6 1 -17 -9 -25 -23 -7 -14 -19 -24 -28 -22 -8 2 -15 -2 -15
-8 0 -13 27 -13 35 0 9 15 42 12 48 -4 4 -10 1 -13 -9 -9 -26 10 -14 -6 17
-23 19 -9 42 -13 58 -10 16 4 21 3 13 -2 -10 -7 -10 -11 3 -22 12 -10 15 -10
15 3 0 8 10 17 22 20 18 5 19 8 8 22 -7 8 -15 13 -18 10 -3 -2 -13 5 -24 17
-10 12 -21 18 -26 14 -4 -4 2 -14 12 -22 11 -7 17 -16 15 -18 -8 -8 -89 48
-89 62 0 15 16 16 26 1 4 -8 9 -7 15 2 15 24 10 49 -10 49 -11 0 -22 6 -24 13
-4 7 -6 8 -6 1z"/>
<path d="M5910 3470 c0 -5 -1 -13 -2 -17 -2 -5 14 -8 36 -9 l39 -1 -24 18
c-26 20 -49 25 -49 9z"/>
<path d="M7345 3470 c-3 -6 1 -7 9 -4 18 7 21 14 7 14 -6 0 -13 -4 -16 -10z"/>
<path d="M5297 3459 c7 -7 15 -10 18 -7 3 3 -2 9 -12 12 -14 6 -15 5 -6 -5z"/>
<path d="M5540 3462 c0 -6 5 -14 10 -17 6 -4 8 -11 5 -16 -4 -5 1 -9 9 -9 22
0 20 13 -4 35 -11 10 -20 13 -20 7z"/>
<path d="M4936 3424 c-9 -24 -9 -24 27 -24 23 0 28 -3 17 -10 -12 -8 -12 -10
3 -16 11 -4 24 -1 30 6 9 10 9 14 0 17 -7 3 -13 11 -13 18 0 8 -7 11 -20 8
-11 -3 -20 0 -20 6 0 17 -17 13 -24 -5z"/>
<path d="M5940 3424 c0 -8 5 -12 10 -9 6 4 8 11 5 16 -9 14 -15 11 -15 -7z"/>
<path d="M6545 3430 c-3 -5 -1 -10 4 -10 6 0 11 5 11 10 0 6 -2 10 -4 10 -3 0
-8 -4 -11 -10z"/>
<path d="M7304 3417 c3 -12 5 -23 5 -25 1 -5 31 26 31 31 0 3 -9 7 -20 10 -16
4 -19 1 -16 -16z"/>
<path d="M5470 3426 c0 -2 7 -6 15 -10 8 -3 15 -1 15 4 0 6 -7 10 -15 10 -8 0
-15 -2 -15 -4z"/>
<path d="M5685 3410 c-4 -6 -10 -8 -15 -5 -10 6 -7 -21 3 -31 4 -4 7 -12 7
-17 0 -5 -15 2 -34 17 -36 27 -56 33 -56 17 0 -5 10 -13 23 -17 12 -4 33 -18
47 -32 22 -22 17 -20 -45 12 -77 40 -99 46 -64 16 22 -18 22 -19 5 -20 -20 0
-20 0 0 -14 15 -12 16 -17 7 -25 -7 -6 -11 -8 -8 -5 6 9 -65 47 -73 39 -4 -3
0 -10 8 -16 13 -8 13 -10 1 -18 -12 -8 -11 -13 10 -30 14 -12 32 -18 43 -15
11 4 16 2 12 -4 -3 -5 4 -12 16 -15 18 -5 19 -9 9 -21 -11 -13 -9 -13 13 -3
31 14 34 37 6 37 -16 0 -20 7 -20 31 0 17 4 28 10 24 6 -3 10 -1 10 5 0 7 7 7
23 -2 24 -13 28 -14 72 -24 16 -4 40 -18 54 -30 14 -13 27 -21 30 -18 3 3 -5
14 -19 24 -16 12 -20 20 -11 20 9 0 -1 14 -22 34 -20 18 -37 39 -37 47 0 8 8
5 23 -8 12 -12 38 -25 58 -31 35 -9 37 -8 37 15 0 13 -5 22 -12 20 -6 -2 -30
9 -53 24 -46 32 -49 33 -58 19z m49 -46 c3 -8 2 -12 -4 -9 -6 3 -10 10 -10 16
0 14 7 11 14 -7z m-204 -64 c0 -5 -2 -10 -4 -10 -3 0 -8 5 -11 10 -3 6 -1 10
4 10 6 0 11 -4 11 -10z"/>
<path d="M5030 3389 c0 -8 11 -19 25 -26 21 -9 27 -8 35 7 8 15 6 17 -10 13
-11 -3 -27 0 -35 7 -12 10 -15 10 -15 -1z"/>
<path d="M5410 3394 c0 -2 9 -8 20 -14 11 -6 20 -7 20 -2 0 6 -9 12 -20 15
-11 3 -20 3 -20 1z"/>
<path d="M6437 3364 c3 -7 9 -14 14 -14 14 0 10 17 -5 23 -10 4 -13 1 -9 -9z"/>
<path d="M6150 3350 c0 -5 5 -10 11 -10 5 0 7 5 4 10 -3 6 -8 10 -11 10 -2 0
-4 -4 -4 -10z"/>
<path d="M5038 3343 c7 -3 16 -2 19 1 4 3 -2 6 -13 5 -11 0 -14 -3 -6 -6z"/>
<path d="M5063 3333 c-17 -6 -17 -23 0 -23 8 0 14 7 14 15 0 8 -1 15 -1 14 -1
0 -7 -3 -13 -6z"/>
<path d="M5446 3325 c4 -8 10 -15 15 -15 4 0 6 7 3 15 -4 8 -10 15 -15 15 -4
0 -6 -7 -3 -15z"/>
<path d="M6413 3320 c1 -11 7 -20 14 -20 7 0 13 -4 13 -10 0 -6 -10 -6 -27 1
-27 10 -27 10 -8 -10 10 -12 25 -21 33 -21 7 0 26 -8 40 -18 33 -23 58 -32 66
-25 3 4 -3 12 -13 20 -12 8 -18 21 -16 34 3 14 0 19 -9 16 -8 -3 -27 7 -43 23
-33 34 -52 38 -50 10z m71 -46 c23 -9 20 -23 -4 -17 -11 3 -20 9 -20 14 0 11
3 11 24 3z"/>
<path d="M6250 3326 c0 -2 7 -7 16 -10 8 -3 12 -2 9 4 -6 10 -25 14 -25 6z"/>
<path d="M5300 3301 c0 -13 29 -35 37 -28 7 8 -15 37 -28 37 -5 0 -9 -4 -9 -9z"/>
<path d="M6307 3303 c-26 -25 14 -82 62 -89 31 -5 34 -4 22 10 -8 9 -9 16 -3
16 6 0 22 -13 35 -30 14 -16 32 -30 39 -30 7 0 27 -9 44 -19 20 -12 36 -16 45
-10 11 7 11 9 1 9 -7 0 -10 4 -7 10 6 9 -66 50 -115 65 -14 4 -37 16 -52 26
-14 11 -35 19 -47 19 -14 0 -19 5 -15 15 6 16 2 20 -9 8z"/>
<path d="M6655 3290 c-3 -5 -1 -10 4 -10 6 0 11 5 11 10 0 6 -2 10 -4 10 -3 0
-8 -4 -11 -10z"/>
<path d="M6178 3267 c8 -9 11 -20 8 -25 -7 -11 34 -47 63 -57 11 -3 28 -2 37
3 13 7 6 15 -37 43 -90 57 -86 55 -71 36z"/>
<path d="M6265 3270 c4 -6 11 -8 16 -5 14 9 11 15 -7 15 -8 0 -12 -5 -9 -10z"/>
<path d="M5335 3260 c-3 -5 -4 -10 -1 -10 2 0 12 -3 20 -6 12 -5 15 -2 10 10
-7 18 -20 21 -29 6z"/>
<path d="M5410 3256 c0 -8 4 -17 9 -20 11 -7 33 18 24 27 -12 12 -33 7 -33 -7z"/>
<path d="M5636 3237 c2 -7 14 -13 25 -13 19 0 19 1 3 13 -10 7 -21 13 -26 13
-4 0 -5 -6 -2 -13z"/>
<path d="M5980 3231 c0 -5 7 -14 15 -21 8 -7 15 -19 15 -26 0 -8 5 -14 11 -14
5 0 8 4 5 9 -4 5 0 12 6 14 8 4 4 8 -9 12 -13 4 -23 14 -23 21 0 8 -4 14 -10
14 -5 0 -10 -4 -10 -9z"/>
<path d="M5372 3221 c-11 -7 -10 -10 3 -15 20 -7 38 1 30 15 -7 11 -16 11 -33
0z"/>
<path d="M6094 3211 c21 -23 26 -26 26 -11 0 5 -10 15 -22 21 -23 12 -23 12
-4 -10z"/>
<path d="M6156 3195 c25 -19 40 -19 20 0 -8 8 -20 15 -27 15 -7 0 -4 -6 7 -15z"/>
<path d="M6390 3185 c7 -8 20 -15 28 -15 13 0 12 3 -4 15 -25 19 -40 19 -24 0z"/>
<path d="M5430 3181 c0 -5 7 -12 16 -15 22 -9 24 -8 24 9 0 8 -9 15 -20 15
-11 0 -20 -4 -20 -9z"/>
<path d="M5610 3176 c0 -2 7 -7 16 -10 8 -3 12 -2 9 4 -6 10 -25 14 -25 6z"/>
<path d="M5334 3149 c-5 -8 9 -13 29 -10 4 0 7 -7 7 -17 0 -10 8 -18 18 -18 9
-1 29 -4 45 -9 18 -5 27 -3 27 4 0 6 -4 11 -9 11 -5 0 -17 7 -26 16 -19 20
-83 36 -91 23z"/>
<path d="M6365 3150 c3 -5 10 -10 16 -10 5 0 9 5 9 10 0 6 -7 10 -16 10 -8 0
-12 -4 -9 -10z"/>
<path d="M6208 3138 c9 -9 15 -9 24 0 9 9 7 12 -12 12 -19 0 -21 -3 -12 -12z"/>
<path d="M6430 3131 c19 -11 40 -20 47 -21 13 0 12 25 -2 37 -4 4 -5 2 -1 -5
8 -13 -14 -12 -59 3 -11 3 -4 -3 15 -14z"/>
<path d="M6110 3136 c0 -2 7 -7 16 -10 8 -3 12 -2 9 4 -6 10 -25 14 -25 6z"/>
<path d="M6380 3116 c6 -8 18 -12 26 -9 19 7 7 23 -18 23 -17 0 -18 -3 -8 -14z"/>
<path d="M5263 3100 c1 -11 7 -20 14 -20 11 0 11 5 3 20 -6 11 -13 20 -15 20
-2 0 -3 -9 -2 -20z"/>
<path d="M6264 3105 c35 -18 47 -19 41 -2 -3 6 -20 13 -37 14 l-33 3 29 -15z"/>
<path d="M5476 3077 c3 -10 9 -15 12 -12 3 3 0 11 -7 18 -10 9 -11 8 -5 -6z"/>
<path d="M5548 3083 c7 -3 16 -2 19 1 4 3 -2 6 -13 5 -11 0 -14 -3 -6 -6z"/>
<path d="M6205 3080 c3 -5 8 -10 11 -10 2 0 4 5 4 10 0 6 -5 10 -11 10 -5 0
-7 -4 -4 -10z"/>
<path d="M5380 3060 c-12 -8 -11 -10 8 -10 12 0 22 5 22 10 0 13 -11 13 -30 0z"/>
<path d="M6163 3056 c5 -12 3 -23 -5 -28 -10 -6 -8 -8 5 -8 9 0 17 5 17 10 0
6 15 10 33 10 l32 1 -25 14 c-15 8 -26 10 -28 4 -2 -6 -11 -4 -20 3 -14 11
-15 10 -9 -6z"/>
<path d="M5330 3051 c0 -5 7 -12 16 -15 14 -5 15 -4 4 9 -14 17 -20 19 -20 6z"/>
<path d="M5182 3025 c15 -14 30 -25 33 -25 4 0 13 -7 21 -15 18 -17 34 -20 34
-5 0 6 -7 10 -15 10 -8 0 -15 7 -15 16 0 10 -6 14 -15 10 -8 -3 -15 -2 -15 2
0 4 -12 13 -28 20 l-27 12 27 -25z"/>
<path d="M5405 3039 c-4 -6 -5 -13 -2 -16 7 -7 27 6 27 18 0 12 -17 12 -25 -2z"/>
<path d="M6355 3030 c3 -5 14 -10 23 -10 15 0 15 2 2 10 -20 13 -33 13 -25 0z"/>
<path d="M6200 3005 c7 -8 19 -15 26 -15 8 0 14 7 14 15 0 10 -10 15 -26 15
-22 0 -25 -2 -14 -15z"/>
<path d="M6170 2972 c0 -6 9 -12 20 -15 11 -3 20 -3 20 -1 0 2 -9 8 -20 14
-11 6 -20 7 -20 2z"/>
<path d="M5200 2961 c0 -5 7 -12 16 -15 14 -5 15 -4 4 9 -14 17 -20 19 -20 6z"/>
<path d="M5275 2960 c-3 -5 1 -10 9 -10 9 0 16 5 16 10 0 6 -4 10 -9 10 -6 0
-13 -4 -16 -10z"/>
<path d="M6180 2930 c0 -4 7 -7 15 -6 23 3 26 12 5 13 -11 1 -20 -2 -20 -7z"/>
<path d="M6000 2920 c0 -5 5 -10 10 -10 6 0 10 5 10 10 0 6 -4 10 -10 10 -5 0
-10 -4 -10 -10z"/>
<path d="M5928 2854 c32 -22 92 -43 92 -32 0 5 7 8 15 5 8 -4 17 -2 20 2 7 12
-51 34 -66 25 -7 -4 -10 -3 -6 3 4 7 -7 11 -33 10 -33 -1 -36 -3 -22 -13z"/>
<path d="M71 2254 c0 -11 3 -14 6 -6 3 7 2 16 -1 19 -3 4 -6 -2 -5 -13z"/>
<path d="M1 2076 c0 -77 3 -106 12 -106 9 0 9 -2 0 -8 -7 -4 -12 -39 -12 -95
-1 -72 2 -87 15 -87 8 0 12 -5 9 -10 -4 -6 -11 -8 -16 -5 -5 4 -9 -71 -9 -189
0 -146 3 -196 13 -200 9 -5 9 -7 -1 -12 -8 -4 -12 -34 -12 -98 0 -86 2 -94 23
-105 l22 -12 -22 5 -23 4 1 -344 c0 -227 3 -344 10 -344 6 0 8 4 5 9 -10 16
33 19 46 3 11 -13 10 -15 -4 -9 -10 3 -24 0 -32 -8 -7 -8 -15 -12 -18 -10 -2
2 -5 -9 -6 -25 -2 -28 0 -30 31 -30 28 0 33 -4 33 -23 0 -19 -4 -23 -23 -19
-13 2 -23 8 -23 13 0 5 -4 9 -10 9 -6 0 -10 -33 -10 -79 l0 -79 34 3 c18 1 42
6 54 9 17 6 19 3 15 -14 -4 -15 -1 -21 8 -20 8 1 25 2 39 1 23 -1 23 -2 8 -18
-14 -13 -20 -14 -32 -4 -11 9 -20 10 -35 2 -11 -6 -31 -11 -45 -11 -18 0 -24
-4 -20 -15 4 -8 2 -15 -4 -15 -5 0 -13 -7 -16 -16 -5 -12 -2 -15 13 -11 28 7
41 -6 51 -46 6 -27 4 -37 -6 -41 -7 -3 -16 0 -20 6 -5 7 -2 8 6 3 8 -5 11 -4
6 3 -9 15 -50 -1 -54 -22 -3 -13 6 -16 51 -16 35 0 57 5 60 13 4 8 6 8 6 0 1
-15 1596 -19 1606 -3 3 6 0 7 -9 4 -11 -4 -16 0 -16 11 0 10 5 13 12 9 7 -4 8
-3 4 4 -4 7 -15 12 -24 12 -10 0 -30 11 -45 26 -15 14 -32 22 -37 19 -6 -3
-10 -2 -10 3 0 6 7 12 15 16 8 3 15 11 14 18 0 10 -2 10 -6 1 -2 -7 -9 -13
-15 -13 -6 0 -8 7 -5 15 4 8 2 17 -4 20 -5 4 -12 -1 -15 -10 -6 -14 -9 -13
-23 8 -10 16 -24 23 -40 22 -22 -2 -23 -1 -6 12 16 11 22 10 41 -8 13 -12 24
-16 28 -11 3 6 0 13 -6 15 -9 4 -8 6 2 6 22 1 24 48 2 60 -16 9 -16 10 1 16
35 14 15 43 -26 36 -4 0 -6 2 -5 6 1 5 -2 21 -7 36 -5 20 -11 25 -18 18 -15
-15 -27 -14 -27 2 0 19 -35 49 -45 40 -4 -5 -5 0 -2 9 3 10 2 20 -4 23 -5 4
-7 11 -4 16 4 5 1 9 -4 9 -6 0 -23 13 -38 29 -16 15 -37 33 -48 38 -22 11 -48
6 -40 -8 4 -5 -1 -6 -10 -3 -13 5 -12 9 7 27 17 15 19 19 5 14 -11 -4 -25 1
-37 13 -11 11 -20 16 -20 12 0 -4 -9 -8 -21 -8 -16 0 -19 5 -15 26 3 14 3 19
0 13 -9 -21 -24 -15 -25 10 0 12 -3 16 -6 9 -3 -8 -10 -5 -23 10 -11 14 -15
27 -9 34 5 7 3 11 -6 11 -8 0 -15 -4 -15 -9 0 -4 -5 -8 -12 -8 -6 0 -9 3 -5 6
5 6 -8 23 -61 76 -19 20 -23 28 -12 29 9 0 5 4 -7 9 -13 5 -23 14 -23 20 0 6
-4 9 -9 6 -5 -3 -14 8 -20 25 -7 22 -15 29 -26 25 -8 -3 -15 -1 -15 4 0 6 6
10 12 10 7 0 1 8 -12 17 -32 22 -69 65 -70 79 0 14 -39 49 -65 58 -16 6 -17 9
-5 16 12 8 10 14 -14 35 -16 13 -32 22 -37 20 -4 -3 -9 5 -11 17 -2 13 -9 22
-16 21 -6 -2 -12 5 -12 16 0 10 -9 21 -20 24 -12 3 -20 14 -20 26 0 12 -5 21
-11 21 -5 0 -7 5 -4 10 3 6 -1 10 -10 10 -22 0 -43 22 -37 39 4 11 -1 10 -19
-2 -13 -10 -28 -17 -34 -17 -5 0 -3 5 5 10 12 8 11 10 -7 10 -12 0 -25 5 -28
10 -3 6 1 10 9 10 23 0 19 25 -8 54 -23 26 -43 36 -31 16 3 -5 4 -10 0 -10 -3
0 -10 10 -16 23 -5 12 -16 33 -25 47 -8 14 -12 33 -10 42 3 15 1 16 -15 7 -13
-6 -19 -6 -19 1 0 5 5 10 10 10 7 0 7 7 0 20 -6 11 -8 25 -5 30 3 6 4 10 1 10
-3 0 -10 -10 -17 -21 -8 -15 -8 -19 0 -15 6 4 11 2 11 -3 0 -13 -10 -14 -30
-1 -11 7 -11 10 -2 10 7 0 11 4 7 10 -3 5 -13 7 -23 4 -14 -5 -14 -4 -2 4 8 6
17 9 21 6 4 -2 10 0 14 6 3 5 1 10 -5 10 -6 0 -8 5 -5 10 3 6 -1 11 -9 11 -9
1 -20 3 -26 4 -5 1 -13 3 -17 4 -5 1 -1 6 7 12 12 9 11 10 -7 6 -21 -5 -21 -4
-7 18 14 22 14 23 -5 18 -12 -3 -21 -12 -21 -19 0 -8 -5 -14 -11 -14 -5 0 -7
5 -4 10 3 6 1 10 -5 10 -6 0 -9 4 -6 9 3 5 -1 12 -10 15 -9 4 -14 9 -11 13 4
3 -9 25 -28 49 -19 23 -35 46 -35 50 0 4 -7 15 -16 25 -8 9 -16 26 -17 38 -1
11 -9 24 -19 27 -10 3 -18 11 -16 17 1 11 -24 73 -43 107 -5 8 -12 22 -15 30
-21 54 -25 60 -46 60 -17 0 -19 3 -10 12 16 16 15 49 -3 72 -12 16 -14 5 -14
-88z m69 -173 c0 -12 -3 -13 -15 -3 -8 6 -19 9 -25 5 -10 -6 -14 7 -4 17 10
11 44 -4 44 -19z m195 -340 l20 -16 -20 8 c-11 4 -26 8 -32 8 -7 0 -13 4 -13
9 0 13 23 9 45 -9z m115 13 c0 -3 -4 -8 -10 -11 -5 -3 -10 -1 -10 4 0 6 5 11
10 11 6 0 10 -2 10 -4z m-217 -23 c-7 -2 -19 -2 -25 0 -7 3 -2 5 12 5 14 0 19
-2 13 -5z m-4 -44 c-14 -8 -29 -3 -29 11 0 4 9 6 21 3 15 -4 17 -8 8 -14z
m101 -27 c3 -2 -9 0 -25 4 -37 8 -39 10 -30 24 5 8 13 6 28 -7 12 -10 24 -19
27 -21z m23 21 c-3 -7 -6 -13 -8 -13 -2 0 -5 6 -8 13 -3 8 1 14 8 14 7 0 11
-6 8 -14z m129 -21 c4 -13 -1 -18 -20 -20 -25 -2 -25 -2 -6 17 10 11 20 20 20
20 1 1 4 -7 6 -17z m-98 -7 c4 -11 -1 -15 -19 -15 -29 0 -34 16 -7 23 9 3 18
5 18 6 1 0 4 -6 8 -14z m-144 -46 c0 -5 -6 -9 -14 -9 -23 0 -46 11 -41 20 6
10 55 0 55 -11z m51 -6 c3 1 1 -2 -3 -8 -5 -5 -15 -2 -26 9 -16 18 -16 18 4 8
12 -6 23 -10 25 -9z m299 -129 c0 -2 -7 -4 -15 -4 -8 0 -15 4 -15 10 0 5 7 7
15 4 8 -4 15 -8 15 -10z m-407 -1 c-7 -2 -19 -2 -25 0 -7 3 -2 5 12 5 14 0 19
-2 13 -5z m27 -17 c0 -11 -19 -15 -25 -6 -3 5 1 10 9 10 9 0 16 -2 16 -4z
m-103 -12 c-3 -3 -12 -4 -19 -1 -8 3 -5 6 6 6 11 1 17 -2 13 -5z m158 -4 c3
-5 -3 -10 -14 -10 -11 0 -23 5 -26 10 -3 6 3 10 14 10 11 0 23 -4 26 -10z
m415 -46 c0 -16 -9 -18 -30 -4 -13 9 -13 11 0 19 17 12 30 5 30 -15z m-502
-106 c18 -18 15 -28 -8 -28 -13 0 -20 7 -20 20 0 23 10 26 28 8z m175 -13 c-3
-9 -8 -14 -10 -11 -3 3 -2 9 2 15 9 16 15 13 8 -4z m436 6 c8 -5 9 -11 3 -15
-14 -8 -43 4 -36 15 7 11 15 11 33 0z m-319 -21 c0 -9 -69 -5 -78 5 -4 5 -2 6
3 3 6 -3 19 -2 30 2 21 8 45 3 45 -10z m-300 -27 c0 -20 -19 -25 -35 -9 -21
21 -19 26 10 24 14 -1 25 -8 25 -15z m52 -5 c10 2 23 -2 30 -8 7 -6 22 -17 33
-25 19 -13 19 -14 -8 -20 -20 -5 -33 -2 -47 10 -19 17 -20 17 -20 1 0 -11 -6
-16 -17 -14 -12 2 -18 12 -17 28 2 40 3 42 17 33 6 -4 20 -6 29 -5z m295 -34
c1 -18 -2 -23 -9 -16 -6 6 -8 18 -5 26 9 22 12 20 14 -10z m-242 -46 c3 -3 -1
-8 -9 -11 -8 -3 -17 0 -19 8 -5 13 16 15 28 3z m-160 -87 c3 -6 -3 -9 -14 -8
-11 0 -17 5 -15 9 7 11 22 10 29 -1z m403 -17 c-1 -5 -9 -9 -16 -10 -10 -2
-11 1 -1 12 12 14 24 13 17 -2z m194 -8 c7 4 8 2 4 -5 -9 -13 -26 -5 -25 12 0
9 2 8 6 -1 2 -6 10 -9 15 -6z m298 4 c0 -5 -5 -10 -11 -10 -5 0 -7 5 -4 10 3
6 8 10 11 10 2 0 4 -4 4 -10z m-750 -29 c0 -9 -29 -11 -50 -5 -12 4 -12 7 -1
13 14 9 51 3 51 -8z m680 -1 c8 -5 11 -10 5 -10 -5 0 -17 5 -25 10 -8 5 -10
10 -5 10 6 0 17 -5 25 -10z m61 -16 c12 -14 11 -16 -5 -13 -11 2 -21 10 -24
17 -5 17 13 15 29 -4z m-181 -38 c0 -3 -4 -8 -10 -11 -5 -3 -10 -1 -10 4 0 6
5 11 10 11 6 0 10 -2 10 -4z m224 -168 c-7 -10 -39 -5 -56 10 -8 6 -18 9 -22
5 -4 -4 -4 0 -1 9 6 15 9 15 45 0 21 -9 36 -20 34 -24z m-799 22 c3 -5 1 -10
-4 -10 -6 0 -11 5 -11 10 0 6 2 10 4 10 3 0 8 -4 11 -10z m89 -92 c-3 -4 -9
-8 -15 -8 -5 0 -9 4 -9 8 0 5 7 9 15 9 8 0 12 -4 9 -9z m376 3 c0 -12 -29 -23
-42 -15 -6 4 -5 10 3 15 18 11 39 11 39 0z m620 -20 c-13 -11 -29 -17 -34 -14
-5 3 2 12 15 19 36 20 48 16 19 -5z m-6 -87 c4 -9 4 -19 1 -22 -3 -3 -5 -1 -5
5 0 6 -9 9 -20 6 -11 -3 -17 -10 -14 -15 4 -6 -4 -5 -16 2 -21 11 -21 12 -3
25 25 19 50 18 57 -1z m66 -8 c0 -3 -4 -8 -10 -11 -5 -3 -10 -1 -10 4 0 6 5
11 10 11 6 0 10 -2 10 -4z m-390 -41 c0 -1 -9 -5 -20 -8 -12 -3 -20 0 -20 8 0
8 8 11 20 8 11 -3 20 -7 20 -8z m355 5 c3 -5 -1 -10 -9 -10 -9 0 -16 5 -16 10
0 6 4 10 9 10 6 0 13 -4 16 -10z m-1165 -34 c0 -9 -7 -12 -20 -9 -11 3 -20 9
-20 14 0 5 9 9 20 9 11 0 20 -6 20 -14z m1180 9 c0 -2 -9 -9 -20 -15 -12 -6
-20 -7 -20 -1 0 5 8 12 18 14 9 3 18 5 20 6 1 0 2 -1 2 -4z m-1070 -35 c0 -5
-9 -10 -19 -10 -11 0 -23 5 -26 10 -4 6 5 10 19 10 14 0 26 -4 26 -10z m-140
-35 c10 -13 9 -15 -8 -15 -15 0 -20 5 -16 15 4 8 7 15 9 15 1 0 8 -7 15 -15z
m50 -35 c0 -5 -2 -10 -4 -10 -3 0 -8 5 -11 10 -3 6 -1 10 4 10 6 0 11 -4 11
-10z m154 -39 c3 -4 3 -11 0 -14 -8 -8 -34 3 -34 14 0 11 27 12 34 0z m-94
-81 c-9 -6 -9 -9 0 -15 6 -4 17 1 24 10 7 10 19 15 27 12 10 -4 9 -6 -3 -6
-12 -1 -18 -9 -18 -27 0 -19 4 -25 15 -20 8 3 15 2 15 -3 0 -5 -9 -11 -20 -14
-11 -3 -18 -1 -14 4 11 18 -12 8 -38 -16 -15 -14 -35 -25 -44 -25 -14 0 -13 4
7 23 13 13 27 22 30 20 4 -1 9 4 12 11 7 18 -16 38 -35 31 -9 -4 -18 1 -22 10
-3 9 -2 13 4 10 5 -3 17 -2 27 3 20 12 52 4 33 -8z m-89 -27 c-12 -20 -14 -14
-5 12 4 9 9 14 11 11 3 -2 0 -13 -6 -23z m186 -19 c-3 -3 -12 -4 -19 -1 -8 3
-5 6 6 6 11 1 17 -2 13 -5z m203 -42 c0 -1 -8 2 -19 7 -10 6 -21 7 -25 4 -3
-3 -6 -2 -6 4 0 19 12 21 31 5 10 -9 19 -18 19 -20z m1145 -21 c-13 -13 -17
-14 -24 -2 -10 16 -34 5 -25 -12 5 -8 4 -9 -4 -2 -6 6 -12 19 -14 30 -2 14 2
19 15 17 9 -2 17 2 17 8 0 6 11 3 26 -6 23 -16 24 -18 9 -33z m-260 1 c-3 -3
-11 0 -18 7 -9 10 -8 11 6 5 10 -3 15 -9 12 -12z m295 -6 c0 -3 -4 -8 -10 -11
-5 -3 -10 -1 -10 4 0 6 5 11 10 11 6 0 10 -2 10 -4z"/>
<path d="M310 1670 c-9 -6 -10 -10 -3 -10 6 0 15 5 18 10 8 12 4 12 -15 0z"/>
<path d="M473 1493 c4 -3 1 -13 -6 -22 -11 -14 -10 -14 5 -2 16 12 16 31 1 31
-4 0 -3 -3 0 -7z"/>
<path d="M500 1451 c0 -5 5 -13 10 -16 6 -3 10 -2 10 4 0 5 -4 13 -10 16 -5 3
-10 2 -10 -4z"/>
<path d="M6390 1421 c-8 -5 -44 -18 -80 -31 -36 -12 -80 -28 -98 -37 -18 -8
-50 -17 -70 -20 -34 -6 -36 -5 -23 10 7 10 22 17 32 17 17 0 18 3 7 20 -13 20
-13 20 -39 -7 -14 -16 -64 -63 -112 -106 l-85 -77 14 -30 c14 -26 62 -70 78
-70 10 0 49 -33 106 -91 54 -56 104 -90 147 -104 18 -5 22 -3 17 8 -3 8 -20
18 -37 21 -31 6 -77 56 -77 84 0 7 -6 12 -14 12 -32 0 -34 56 -4 82 23 20 23
20 3 34 -38 27 -65 56 -59 65 3 5 0 9 -5 9 -6 0 -11 7 -11 15 0 18 9 19 44 5
38 -14 34 15 -5 39 -30 18 -30 20 -11 30 28 15 65 0 118 -49 47 -43 123 -94
131 -87 2 3 -15 18 -39 34 -24 17 -42 36 -40 43 4 17 -17 40 -38 40 -10 0 -20
6 -23 14 -9 24 43 26 126 4 64 -16 81 -17 93 -7 14 11 13 15 -8 30 -43 33 -12
43 150 47 81 2 163 5 182 7 19 1 45 3 58 4 14 1 21 5 16 12 -4 7 -24 9 -55 5
-63 -9 -310 -9 -355 0 -28 5 -32 9 -23 20 13 16 10 17 -11 5z"/>
<path d="M6888 1393 c7 -3 16 -2 19 1 4 3 -2 6 -13 5 -11 0 -14 -3 -6 -6z"/>
<path d="M5110 1129 c-7 -11 -9 -27 -6 -34 3 -9 -4 -15 -22 -17 -24 -3 -27 -8
-30 -43 -9 -119 -9 -119 26 -135 18 -9 30 -19 26 -23 -4 -4 0 -7 9 -7 8 0 23
-3 32 -6 14 -6 14 -3 4 20 -7 14 -16 26 -20 26 -12 0 -3 34 11 38 7 3 10 0 6
-6 -3 -6 2 -15 11 -21 11 -6 13 -11 5 -11 -10 0 -10 -3 0 -13 19 -21 36 -16
34 10 -1 15 -7 23 -19 23 -10 0 -15 5 -12 10 3 6 2 10 -3 10 -15 0 -24 32 -12
44 5 5 10 15 10 20 0 6 -4 5 -9 -2 -12 -20 -22 57 -10 79 8 15 6 17 -6 13 -13
-5 -15 -1 -11 20 6 31 1 33 -14 5z m4 -214 c-4 -8 -10 -15 -15 -15 -4 0 -6 7
-3 15 4 8 10 15 15 15 4 0 6 -7 3 -15z"/>
<path d="M5859 1127 c-9 -7 -50 -42 -91 -79 l-75 -68 33 -95 c33 -95 48 -165
60 -277 4 -43 9 -58 21 -58 10 0 13 6 9 16 -3 8 -2 12 4 9 6 -3 10 1 10 9 0 9
5 16 10 16 6 0 10 9 10 20 0 22 10 26 26 10 8 -8 15 -6 25 6 13 16 12 17 -8
12 -13 -4 -23 -2 -23 3 0 5 5 9 11 9 6 0 26 16 44 35 27 31 39 36 79 37 25 0
49 4 52 9 2 4 15 5 27 1 40 -15 49 -9 53 35 4 38 1 43 -28 57 -41 21 -51 20
-36 -4 7 -11 18 -20 25 -20 7 0 13 -4 13 -10 0 -15 -6 -12 -40 19 -20 18 -28
31 -21 35 18 11 13 26 -9 26 -21 0 -70 47 -70 67 0 7 -7 13 -15 13 -10 0 -15
10 -15 31 0 16 -4 28 -8 25 -5 -3 -9 8 -9 23 0 16 -7 37 -16 46 -9 9 -17 23
-17 30 0 20 -13 25 -31 12z"/>
<path d="M5644 942 c-50 -40 -94 -74 -126 -95 -24 -17 -36 -35 -44 -67 -14
-58 -24 -201 -12 -194 4 3 8 16 8 29 0 13 3 26 8 29 4 2 6 -12 4 -32 -2 -21
-5 -62 -7 -92 -2 -30 -6 -72 -9 -92 -3 -24 0 -38 6 -38 6 0 8 -3 5 -7 -7 -6
37 -71 57 -85 6 -4 7 -8 2 -8 -5 0 -1 -9 9 -20 9 -10 15 -26 12 -34 -4 -10 3
-13 28 -12 18 1 31 -2 29 -5 -8 -14 58 -16 71 -2 15 15 39 18 31 4 -9 -14 20
-21 33 -8 18 18 13 32 -24 66 -19 17 -35 37 -35 44 0 8 3 8 9 -2 5 -8 11 -9
15 -3 6 10 -21 25 -32 18 -4 -2 -7 9 -7 25 0 16 3 29 8 29 4 0 7 -5 7 -11 0
-5 5 -7 10 -4 18 11 10 30 -18 46 l-28 16 1 -34 c2 -29 -8 -39 -11 -12 -1 5
-2 10 -4 12 -1 1 -3 12 -4 25 -2 16 3 22 18 22 12 0 16 4 11 8 -6 4 -11 18
-12 32 -1 14 -5 38 -9 54 -5 23 -4 27 7 20 9 -5 7 2 -5 20 -11 17 -13 25 -5
20 12 -6 12 -5 1 8 -9 11 -10 18 -2 23 6 3 8 11 5 16 -4 5 -2 9 3 9 5 0 7 17
5 38 -6 80 0 195 13 240 8 26 6 27 -22 4z"/>
<path d="M3375 821 c-4 -7 5 -11 22 -12 l28 -1 -29 -7 c-16 -3 -31 -12 -34
-18 -5 -16 10 -17 26 -1 8 8 15 8 25 0 8 -7 17 -9 21 -5 4 4 11 1 16 -7 7 -11
10 -12 10 -2 0 8 5 10 12 6 20 -13 55 -10 55 3 0 7 -9 13 -19 13 -11 0 -28 5
-39 11 -11 6 -28 12 -37 14 -9 2 -24 6 -33 10 -10 3 -20 2 -24 -4z"/>
<path d="M6425 567 c11 -9 25 -17 32 -17 6 0 13 -5 15 -10 2 -6 14 -12 28 -12
14 -1 27 -5 30 -9 3 -4 19 -10 35 -13 17 -2 31 -5 33 -6 1 -2 5 -3 10 -4 4 -1
14 -6 22 -11 22 -14 50 -13 50 2 0 7 -9 13 -20 13 -11 0 -20 4 -20 10 0 5 -12
13 -27 16 -15 4 -34 13 -41 21 -8 7 -17 11 -22 8 -5 -3 -11 -1 -15 5 -4 6 -12
5 -21 -5 -9 -8 -21 -12 -27 -8 -7 4 -4 9 9 14 14 6 10 8 -18 8 -20 1 -45 4
-55 7 -16 6 -16 5 2 -9z"/>
<path d="M6691 479 c-1 -9 6 -20 15 -23 23 -9 34 -7 34 4 0 6 -9 10 -19 10
-11 0 -22 6 -24 13 -4 7 -6 6 -6 -4z"/>
<path d="M3600 255 c7 -9 15 -13 17 -11 7 7 -7 26 -19 26 -6 0 -6 -6 2 -15z"/>
<path d="M1617 213 c5 -11 3 -14 -6 -8 -10 6 -11 3 -2 -12 6 -11 8 -23 5 -26
-3 -3 4 -11 16 -17 22 -12 22 -12 6 11 -20 29 -20 39 -1 39 9 0 12 6 9 15 -4
8 -12 15 -20 15 -8 0 -11 -6 -7 -17z"/>
<path d="M5457 186 c-4 -10 -1 -13 7 -10 10 4 12 -2 9 -19 -3 -14 0 -28 6 -31
16 -11 14 49 -3 63 -10 9 -15 8 -19 -3z"/>
<path d="M5580 110 c0 -5 5 -10 11 -10 5 0 7 5 4 10 -3 6 -8 10 -11 10 -2 0
-4 -4 -4 -10z"/>
<path d="M5 69 c-11 -16 -1 -19 13 -3 7 8 8 14 3 14 -5 0 -13 -5 -16 -11z"/>
</g>
</svg>
